<?xml version="1.0" encoding="UTF-8"?> <!-- Generator: Adobe Illustrator 26.0.1, SVG Export Plug-In . SVG Version: 6.00 Build 0) --> <svg xmlns="http://www.w3.org/2000/svg" xmlns:xlink="http://www.w3.org/1999/xlink" version="1.1" x="0px" y="0px" viewBox="0 0 431.8 107.4" style="enable-background:new 0 0 431.8 107.4;" xml:space="preserve"> <style type="text/css"> .st0{fill:#FFFFFF;} </style> <g id="Layer_1"> <g> <g> <path class="st0" d="M142.1,48.3l-0.8-0.2c0.1-0.2,0.1-0.3,0.1-0.5c0-0.4-0.2-0.7-0.7-1c-0.5-0.3-1.1-0.6-1.8-0.8 c-0.7-0.2-1.5-0.4-2.4-0.5c-0.9-0.1-1.7-0.2-2.4-0.2c-0.9,0-1.9,0.1-2.8,0.4c-0.9,0.3-1.8,0.7-2.5,1.2c-0.7,0.6-1.3,1.3-1.7,2.2 c-0.4,0.9-0.7,2-0.7,3.2c0,1.2,0.2,2.3,0.7,3.2c0.4,0.9,1,1.6,1.7,2.2c0.7,0.6,1.5,1,2.5,1.2c0.9,0.3,1.9,0.4,2.8,0.4 c1.4,0,2.7-0.1,3.9-0.4c1.2-0.2,2.1-0.5,2.9-0.8v-3.3h-4.9c-0.4,0-0.6,0.1-0.8,0.2c-0.2,0.2-0.3,0.5-0.3,1h-0.7v-4.9h0.7 c0.1,0.4,0.2,0.7,0.3,0.8c0.2,0.1,0.4,0.2,0.8,0.2h9.5v0.7c-0.5,0.1-0.8,0.2-1,0.3c-0.1,0.1-0.2,0.3-0.2,0.6v4.3 c0,0.3,0.1,0.4,0.2,0.5c0.2,0.1,0.3,0.2,0.5,0.3v0.6c-0.8,0.6-1.7,1.1-2.6,1.4c-0.9,0.4-1.9,0.7-2.8,0.9c-1,0.2-1.9,0.4-2.9,0.4 s-1.9,0.1-2.8,0.1c-1.8,0-3.4-0.2-4.9-0.7c-1.5-0.4-2.7-1.1-3.7-2c-1-0.9-1.8-1.9-2.4-3.2c-0.6-1.3-0.9-2.7-0.9-4.3 s0.3-3,0.9-4.3c0.6-1.3,1.4-2.3,2.4-3.2c1-0.9,2.3-1.6,3.7-2c1.5-0.5,3.1-0.7,4.9-0.7c1.1,0,2.2,0.1,3.2,0.2 c1,0.2,1.9,0.3,2.7,0.5c0.8,0.2,1.4,0.4,2,0.5c0.5,0.2,0.8,0.2,1,0.2c0.2,0,0.4,0,0.5-0.2c0.1-0.1,0.3-0.2,0.4-0.3l0.5,0.3 L142.1,48.3z"></path> </g> <g> <path class="st0" d="M160.7,45.4c2.3,0,4,0.4,5.3,1.1c1.3,0.7,1.9,2,1.9,3.8c0,0.7-0.1,1.3-0.4,1.8c-0.3,0.5-0.6,1-1,1.4 c-0.4,0.4-0.9,0.7-1.4,1c-0.5,0.2-1,0.4-1.6,0.6l3.7,5.4c0.2,0.3,0.4,0.5,0.7,0.6c0.2,0.1,0.5,0.2,0.8,0.3v0.7h-5.8v-0.7 c0.3,0,0.5-0.1,0.5-0.3c0-0.3-0.2-0.6-0.6-1.2l-3-4.5h-5.3v5.4c0,0.2,0.1,0.3,0.2,0.4c0.2,0.1,0.3,0.1,0.5,0.1v0.7h-5.1v-0.7 c0.5,0,0.7-0.2,0.7-0.6V46.7c0-0.4-0.2-0.6-0.7-0.6v-0.7H160.7z M160.7,52.7c2.5,0,3.7-0.8,3.7-2.4c0-0.6-0.3-1.1-0.9-1.5 c-0.6-0.4-1.5-0.6-2.8-0.6h-6v4.4H160.7z"></path> </g> <g> <path class="st0" d="M187.6,49c0-0.5-0.4-0.7-1.2-0.7h-9.3v3.8h5.9c0.4,0,0.7,0,1-0.1c0.2-0.1,0.3-0.2,0.3-0.5h0.7v4h-0.8 c0.1-0.3,0-0.4-0.3-0.5c-0.3-0.1-0.7-0.1-1.2-0.1h-5.6v4.5h9.7c0.3,0,0.6-0.1,0.8-0.2c0.2-0.1,0.3-0.3,0.3-0.6h0.7v4h-0.7 c0-0.2-0.1-0.4-0.3-0.4c-0.2,0-0.5,0-0.8,0h-14v-0.7c0.1,0,0.3,0,0.4-0.1c0.1-0.1,0.2-0.2,0.2-0.4V46.7c0-0.2-0.1-0.3-0.2-0.4 s-0.3-0.1-0.4-0.1v-0.7h13.5c0.8,0,1.2-0.2,1.2-0.7h0.7V49H187.6z"></path> </g> <g> <path class="st0" d="M210.4,46.1c-0.4,0-0.7,0.3-1,0.9l-5.6,12.3c-0.3,0.7-0.5,1.1-0.6,1.3c-0.1,0.2-0.2,0.4-0.2,0.5 c0,0.2,0.2,0.3,0.7,0.3v0.7H198v-0.7c0.1-0.1,0.2-0.1,0.4-0.2c0.1-0.1,0.2-0.2,0.2-0.3c0-0.1-0.1-0.3-0.2-0.6 c-0.2-0.3-0.4-0.7-0.6-1.1l-5.8-12.4c-0.1-0.2-0.2-0.4-0.4-0.5c-0.2-0.1-0.3-0.2-0.5-0.2v-0.7h5.4v0.7c-0.3,0-0.5,0.2-0.5,0.5 c0,0.2,0.1,0.4,0.2,0.7c0.1,0.3,0.3,0.7,0.5,1l4.4,9.5l4.1-9.2c0.3-0.6,0.5-1.1,0.6-1.4c0.2-0.3,0.2-0.5,0.2-0.7 c0-0.3-0.2-0.5-0.6-0.5v-0.7h5V46.1z"></path> </g> <g> <path class="st0" d="M214,61.5c0.4,0,0.7,0,0.8-0.1c0.2-0.1,0.2-0.2,0.2-0.4V46.7c0-0.2-0.1-0.3-0.2-0.4 c-0.2-0.1-0.4-0.1-0.8-0.1v-0.7h5.8v0.7c-0.7,0-1.1,0.2-1.1,0.6v14.2c0,0.4,0.4,0.6,1.1,0.6v0.7H214V61.5z"></path> </g> <g> <path class="st0" d="M225.5,61.5c0.5,0,0.7-0.2,0.7-0.6V46.7c0-0.4-0.2-0.6-0.7-0.6v-0.7h5.6v0.7c-0.2,0-0.3,0.1-0.3,0.2 c0,0.1,0.3,0.5,0.8,1l9.1,9.7V46.7c0-0.4-0.3-0.6-0.8-0.6v-0.7h4.6v0.7c-0.5,0-0.7,0.2-0.7,0.6v14.2c0,0.4,0.2,0.6,0.7,0.6v0.7 h-4.9v-0.7c0.2,0,0.3-0.1,0.3-0.2c0-0.1-0.1-0.3-0.4-0.5c-0.2-0.3-0.5-0.5-0.8-0.9l-9.4-10v11.1c0,0.4,0.3,0.6,0.8,0.6v0.7h-4.7 V61.5z"></path> </g> <g> <path class="st0" d="M250.1,61.5c0.5,0,0.7-0.2,0.7-0.6V46.7c0-0.4-0.2-0.6-0.7-0.6v-0.7h5.6v0.7c-0.2,0-0.3,0.1-0.3,0.2 c0,0.1,0.3,0.5,0.8,1l9.1,9.7V46.7c0-0.4-0.3-0.6-0.8-0.6v-0.7h4.6v0.7c-0.5,0-0.7,0.2-0.7,0.6v14.2c0,0.4,0.2,0.6,0.7,0.6v0.7 h-4.9v-0.7c0.2,0,0.3-0.1,0.3-0.2c0-0.1-0.1-0.3-0.4-0.5c-0.2-0.3-0.5-0.5-0.8-0.9l-9.4-10v11.1c0,0.4,0.3,0.6,0.8,0.6v0.7h-4.7 V61.5z"></path> </g> <g> <path class="st0" d="M272.2,61.5c0.3,0,0.6-0.2,0.7-0.4s0.3-0.5,0.4-0.7l5.7-12.4c0.2-0.4,0.3-0.6,0.4-0.9 c0.1-0.2,0.1-0.4,0.1-0.6c0-0.2,0-0.2-0.1-0.3c-0.1,0-0.1-0.1-0.2-0.1v-0.7h5.7v0.7c-0.1,0.1-0.2,0.1-0.2,0.1 c-0.1,0-0.1,0.1-0.1,0.3c0,0.2,0.1,0.3,0.2,0.6c0.1,0.2,0.2,0.5,0.4,0.7l6.2,12.9c0.1,0.2,0.3,0.4,0.4,0.5 c0.2,0.1,0.3,0.2,0.5,0.2v0.7h-5.4v-0.6c0.1,0,0.3,0,0.4-0.1c0.1-0.1,0.2-0.2,0.2-0.4c0-0.2,0-0.3-0.1-0.4 c-0.1-0.1-0.1-0.3-0.2-0.5l-1-2.2H278l-1.1,2.1c-0.1,0.2-0.2,0.4-0.2,0.6c-0.1,0.2-0.1,0.3-0.1,0.4c0,0.2,0.1,0.3,0.2,0.4 c0.1,0.1,0.3,0.1,0.5,0.1v0.7h-5.1V61.5z M284.9,55.2l-3.1-6.4l-2.7,6.4H284.9z"></path> </g> <g> <path class="st0" d="M295.1,61.5c0.5,0,0.7-0.2,0.7-0.6V46.7c0-0.4-0.2-0.6-0.7-0.6v-0.7h5.6v0.7c-0.2,0-0.3,0.1-0.3,0.2 c0,0.1,0.3,0.5,0.8,1l9.1,9.7V46.7c0-0.4-0.3-0.6-0.8-0.6v-0.7h4.6v0.7c-0.5,0-0.7,0.2-0.7,0.6v14.2c0,0.4,0.2,0.6,0.7,0.6v0.7 h-4.9v-0.7c0.2,0,0.3-0.1,0.3-0.2c0-0.1-0.1-0.3-0.4-0.5c-0.2-0.3-0.5-0.5-0.8-0.9l-9.4-10v11.1c0,0.4,0.3,0.6,0.8,0.6v0.7h-4.7 V61.5z"></path> </g> <g> <path class="st0" d="M320.9,56.4c0,0.1,0,0.2,0,0.3c0,0.1,0,0.2,0,0.4c0,0.4,0.2,0.7,0.7,1c0.5,0.3,1.1,0.6,1.7,0.8 c0.7,0.2,1.3,0.4,2,0.5s1.2,0.2,1.6,0.2c0.4,0,0.8,0,1.3-0.1c0.5-0.1,1-0.2,1.5-0.3c0.5-0.2,0.9-0.4,1.3-0.7 c0.4-0.3,0.5-0.7,0.5-1.2c0-0.6-0.3-1-0.9-1.2c-0.6-0.3-1.4-0.5-2.3-0.6c-0.9-0.1-2-0.3-3-0.4c-1.1-0.1-2.1-0.4-3-0.7 s-1.7-0.8-2.3-1.4c-0.6-0.6-0.9-1.4-0.9-2.5c0-1.6,0.7-2.9,2-3.9c1.3-1,3.2-1.4,5.7-1.4c1.2,0,2.2,0.1,3.1,0.3 c0.9,0.2,1.6,0.4,2.1,0.6c0.6,0.2,1.1,0.4,1.4,0.6c0.4,0.2,0.6,0.3,0.8,0.3c0.2,0,0.4,0,0.5-0.1c0.1-0.1,0.2-0.1,0.4-0.2l0.4,0.4 l-1.9,3.6l-0.7-0.2c0-0.2,0-0.3-0.1-0.5c0-0.2-0.1-0.3-0.3-0.5c-0.5-0.4-1.3-0.8-2.4-1.1c-1.1-0.3-2.3-0.5-3.6-0.5 c-0.5,0-1,0-1.4,0.1c-0.5,0.1-0.9,0.2-1.2,0.3c-0.4,0.2-0.6,0.3-0.8,0.6c-0.2,0.2-0.3,0.5-0.3,0.9c0,0.6,0.3,1,0.9,1.2 c0.6,0.2,1.4,0.4,2.3,0.6c0.9,0.1,2,0.3,3,0.4c1.1,0.1,2.1,0.4,3,0.7c0.9,0.3,1.7,0.8,2.3,1.4c0.6,0.6,0.9,1.5,0.9,2.6 c0,1.1-0.3,2-0.8,2.7c-0.5,0.7-1.2,1.3-2,1.7c-0.8,0.4-1.7,0.7-2.7,0.8c-1,0.1-1.9,0.2-2.8,0.2c-0.9,0-1.7-0.1-2.6-0.2 c-0.8-0.2-1.6-0.4-2.3-0.6c-0.7-0.2-1.3-0.4-1.8-0.6c-0.5-0.2-0.8-0.3-0.9-0.3c-0.2,0-0.3,0.1-0.5,0.2l-0.5-0.4l1.7-4.3 L320.9,56.4z"></path> </g> <g> <path class="st0" d="M361.7,42.2c1.2,0,2.3,0.1,3.3,0.3c1,0.2,1.8,0.6,2.5,1c0.7,0.5,1.3,1.1,1.6,1.8c0.4,0.7,0.6,1.7,0.6,2.8 c0,1.7-0.5,3-1.5,3.8c-1,0.9-2.3,1.5-4,1.8l5.1,7.2c0.2,0.3,0.4,0.4,0.6,0.5c0.2,0.1,0.5,0.1,0.7,0.1v0.7h-7.1v-0.7 c0.2,0,0.4,0,0.6-0.1c0.2-0.1,0.2-0.2,0.2-0.3c0-0.1-0.1-0.3-0.2-0.4c-0.1-0.2-0.3-0.4-0.5-0.7l-4.2-5.9h-5.4v6.8 c0,0.2,0.1,0.4,0.2,0.5c0.2,0.1,0.5,0.2,0.9,0.2v0.7h-6.6v-0.7c0.7,0,1.1-0.2,1.1-0.7V43.5c0-0.5-0.4-0.7-1.1-0.7v-0.7H361.7z M360.7,51.1c0.9,0,1.7-0.1,2.3-0.2s1.1-0.3,1.4-0.6c0.4-0.3,0.6-0.6,0.8-0.9c0.2-0.3,0.2-0.7,0.2-1.1c0-0.4-0.1-0.8-0.2-1.1 c-0.2-0.3-0.4-0.6-0.8-0.9c-0.4-0.3-0.8-0.5-1.4-0.6c-0.6-0.1-1.4-0.2-2.3-0.2h-6.6v5.6H360.7z"></path> </g> <g> <path class="st0" d="M379.1,46.1c-0.6,0-0.8,0.2-0.8,0.6v8.7c0,1.2,0.4,2.2,1.3,2.9c0.9,0.7,2.2,1.1,4.1,1.1 c1.8,0,3.2-0.4,4.1-1.1s1.3-1.7,1.3-2.9v-8.7c0-0.4-0.3-0.6-1-0.6v-0.7h5.3v0.7c-0.6,0-0.8,0.2-0.8,0.6v9.6 c0,0.8-0.2,1.5-0.5,2.3c-0.4,0.7-0.9,1.4-1.6,1.9c-0.7,0.6-1.6,1-2.8,1.3s-2.5,0.5-4,0.5s-2.8-0.2-4-0.5 c-1.1-0.3-2.1-0.8-2.8-1.3c-0.7-0.6-1.3-1.2-1.6-1.9c-0.4-0.7-0.5-1.5-0.5-2.3v-9.6c0-0.2-0.1-0.3-0.2-0.4 c-0.2-0.1-0.4-0.1-0.9-0.1v-0.7h5.4V46.1z"></path> </g> <g> <path class="st0" d="M397.4,61.5c0.1,0,0.2-0.1,0.3-0.2c0.1-0.1,0.1-0.3,0.1-0.5V46.9c0-0.4,0-0.6-0.1-0.6 c-0.1-0.1-0.2-0.1-0.4-0.1v-0.7h5.3v0.7c-0.3,0-0.4,0.1-0.4,0.3c0,0.1,0,0.2,0.1,0.4s0.2,0.4,0.4,0.7l4.6,8.6l4.7-8.5 c0.2-0.3,0.3-0.6,0.4-0.7c0.1-0.2,0.2-0.3,0.2-0.4c0-0.2-0.1-0.3-0.3-0.3v-0.7h5.4v0.7c-0.1,0-0.2,0-0.4,0.1 c-0.1,0.1-0.2,0.2-0.2,0.4v14.3c0,0.2,0.1,0.3,0.2,0.4c0.1,0.1,0.2,0.1,0.4,0.1v0.7h-4.4v-0.7c0.5,0,0.8-0.2,0.7-0.6V50.2H414 l-6.5,11.9h-0.3l-6.1-11.9h0h-0.1v10.7c0,0.4,0.2,0.6,0.6,0.6v0.7h-4.3V61.5z"></path> </g> </g> <g> <g> <path class="st0" d="M98.9,64.7c0,1,0.1,2.1-0.1,3.1c-0.1,0.5-0.2,1-0.4,1.4c-0.3,0.6-0.7,1-1.4,1.1c-0.6,0.1-1.2,0.4-1.7,0.7 c-2.1,1.3-3.9,2.9-5.2,5C90,76,89.9,76,89.9,76c0.7-2.2,1.6-4.2,2.7-6.2c1-1.7,2.1-3.2,3.6-4.4c0.8-0.6,1.6-1.1,2.5-1.3 C98.9,64.3,98.9,64.5,98.9,64.7"></path> </g> <g> <path class="st0" d="M96.8,43.1C96.8,43.1,96.7,43.1,96.8,43.1c-0.1,0.1-0.1,0-0.1,0S96.7,43,96.8,43.1 C96.7,43,96.8,43.1,96.8,43.1"></path> </g> <g> <path class="st0" d="M96.7,43.1c0,0-0.1,0-0.1,0C96.6,43.1,96.6,43.1,96.7,43.1C96.7,43.1,96.7,43.1,96.7,43.1"></path> </g> <g> <path class="st0" d="M96.6,43.1c0,0,0.1,0,0.1,0c0,0.1-0.1,0.2-0.2,0.3c0.1-0.1,0-0.1,0-0.2C96.5,43.1,96.5,43.1,96.6,43.1"></path> </g> <g> <path class="st0" d="M96.5,43.2c0.1,0.1,0.1,0.1,0,0.2C96.5,43.4,96.5,43.3,96.5,43.2"></path> </g> <g> <path class="st0" d="M96.5,43.2c0,0.1,0,0.1,0,0.2c-0.3,0.6-0.6,1.3-0.7,2c-0.1,0.6-0.1,1.2,0,1.9c0.1,1.2,0.2,2.3,0.2,3.5 c0,0.6-0.1,1.2-0.2,1.8c-0.2,0.8-0.6,1.3-1.3,1.7c-0.6,0.3-1.1,0.9-1.6,1.4c-0.8,1.1-1.3,2.3-1.4,3.7c0,0.1,0,0.2,0.1,0.2 c0.1-0.1,0.2-0.3,0.3-0.4c0.2-0.2,0.3-0.3,0.4-0.5c0.1-0.1,0.3-0.2,0.4-0.3c0.2-0.1,0.4-0.2,0.6-0.3c0.2-0.1,0.4-0.1,0.6-0.2 c0.2,0,0.4,0,0.6-0.1c0.2-0.1,0.4,0,0.6,0c0.2,0,0.4,0,0.5,0.1c0.1,0.1,0,0.2,0,0.2c-0.6,0.7-0.8,1.5-0.8,2.4 c0,0.3,0,0.6-0.1,0.9c-0.1,0.7-0.4,1.3-1,1.8c-0.2,0.2-0.5,0.4-0.7,0.5c-0.2,0.1-0.3,0.3-0.5,0.4c-0.4,0.3-0.7,0.8-0.7,1.4 c-0.1,2.4-0.7,4.6-1.8,6.7c-1.1,1.9-2.5,3.5-4.2,4.8c-0.3,0.2-0.5,0.4-0.8,0.6c0-0.1-0.1-0.1-0.1-0.1c1.3-1.2,2.3-2.5,3-4.1 c0.7-1.5,1.2-3.2,1.4-4.8c0.2-1.2,0.3-2.4,0.3-3.6c0-1.7,0-3.5-0.1-5.2c-0.1-0.9-0.1-1.9-0.1-2.8c0-2,0.1-4,0.7-6 c0.5-1.7,1.3-3.1,2.5-4.4c1.1-1.3,2.4-2.3,3.8-3.2C96.3,43.3,96.4,43.3,96.5,43.2"></path> </g> <g> <path class="st0" d="M96.1,34.1c0.1,0.7-0.1,1.4-0.4,2c-0.9,1.7-2.4,2.4-4.3,2.5c-1.2,0.1-2.3-0.1-3.5-0.4 c-2.5-0.7-4.9-1.7-7.1-3.2c-0.8-0.5-1.5-1.2-2.2-1.8C77.3,32,76,31,74.7,30c-2.3-1.6-4.8-2.8-7.6-3.4c-0.8-0.2-1.6-0.3-2.3-0.4 c0.1-0.1,0.1-0.1,0.2-0.2c0,0,0,0,0.1,0c1.1-0.1,2.1,0.1,3.2,0.2c1.8,0.2,3.5,0.7,5.2,1.3c2.2,0.8,4.3,2,6.3,3.4 c1.9,1.4,3.9,2.5,6.2,3.3c1.1,0.4,2.2,0.7,3.3,0.8c0.9,0.1,1.8,0.1,2.7-0.1c0.1,0,0.2,0,0.2-0.1c0.6-0.1,0.8-0.5,0.9-1 c0-0.3,0.1-0.6,0.1-0.9c0.1-0.2,0.2-0.4,0.3-0.6c0.3-0.3,0.6-0.5,1.1-0.4C95.2,32.2,96,33.1,96.1,34.1"></path> </g> <g> <path class="st0" d="M95.7,75.1c0.1,0.6,0,1.2,0,1.7c-0.1,1.4-0.3,2.8-0.9,4.1c-0.4,1.2-1.1,2.2-1.9,3c-1.1,1.1-2.5,1.8-4,2.1 c-1.2,0.2-2.4,0.2-3.6,0.1c-0.7-0.1-1.5-0.1-2.2-0.2c-0.5-0.1-1.1-0.1-1.6-0.2c-0.6-0.1-1.3-0.2-1.9-0.2c-1-0.1-2-0.1-3-0.2 c-0.4,0-0.8-0.1-1.3-0.1c-1,0-2,0-3,0.1c-3,0.2-5.9,0.9-8.6,2.5c-1.8,1-3.3,2.4-4.5,4c-1.7,2.1-2.8,4.4-3.7,6.9 c-0.1,0.3-0.2,0.7-0.4,1c-0.1-0.1-0.1-0.1-0.1-0.2c0,0,0,0,0,0v0c0.1-0.7,0.2-1.3,0.4-1.9c0.7-2.5,1.7-4.8,3.2-6.9 c2.4-3.5,5.6-6,9.5-7.5c1.6-0.7,3.3-1.1,5.1-1.4c1.1-0.2,2.2-0.5,3.3-0.7c1.6-0.3,3.1-0.6,4.6-0.9c1.1-0.2,2.2-0.4,3.3-0.6 c0.1,0,0.2,0,0.3-0.1c1.2-0.2,2.5-0.5,3.7-0.7c1.1-0.2,2.2-0.5,3.2-0.9c1.4-0.5,2.7-1.3,3.8-2.5c0.1-0.1,0.3-0.3,0.4-0.4 C95.6,75.1,95.7,75.1,95.7,75.1"></path> </g> <g> <path class="st0" d="M90.7,40c0.2-0.2,0.5-0.1,0.7-0.1c-0.1,0.2-0.2,0.2-0.3,0.2C91,39.8,90.8,40,90.7,40"></path> </g> <g> <path class="st0" d="M90.7,40c0.1,0,0.3-0.2,0.4,0.1C90.9,40,90.8,40.1,90.7,40"></path> </g> <g> <path class="st0" d="M90.7,40c0.1,0.1,0.3,0,0.4,0.1c-0.7,0.3-1.4,0.6-2.2,0.8c-0.7,0.2-1.5,0.4-2.3,0.6 c-1.1,0.3-2.2,0.4-3.4,0.5c-0.6,0.1-1.3,0.1-1.9,0c-0.6-0.1-1.2-0.1-1.9-0.3c-2.4-0.6-4.3-2-5.6-4.2c-0.1-0.1-0.1-0.1-0.1-0.2 c-0.2-0.3-0.2-0.3-0.5-0.2c-0.4,0.1-0.9,0.2-1.3,0.1c-0.9-0.1-1.5-0.6-1.7-1.5c-0.1-0.4-0.1-0.7-0.2-1.1c-0.1-0.1-0.2,0-0.3,0 c-0.9,0.2-1.6-0.1-2.2-0.8c-0.3-0.4-0.5-0.9-0.6-1.4c-0.1-0.2-0.1-0.3-0.3-0.4c-1-0.6-1.7-1.4-2.2-2.4c-0.2-0.5-0.6-0.8-1.1-1.2 c-1-0.7-2.1-1.2-3.3-1.5c-0.6-0.1-1.2-0.2-1.8-0.2c-0.8,0-1.5,0.2-2.3,0.4c-0.1,0-0.2,0.1-0.2,0.1h0c-0.1,0-0.2,0-0.2-0.1 c1.5-1,3.2-1.4,5-1.2c1.4,0.2,2.8,0.7,4,1.3c1.4,0.8,2.8,1.7,4.2,2.5c2.3,1.5,4.6,3,6.9,4.5c2.2,1.3,4.4,2.6,6.7,3.7 c1.6,0.7,3.2,1.3,4.8,1.7c1,0.2,2.1,0.4,3.1,0.3C90.5,40,90.6,40,90.7,40"></path> </g> <g> <path class="st0" d="M90,76.1c0,0,0,0.1,0,0.1c-0.1,0.1-0.1,0.1-0.2,0.1c0-0.1-0.1-0.1-0.1-0.2c0-0.1,0.1-0.1,0.1-0.1 C89.9,76.1,89.9,76.1,90,76.1"></path> </g> <g> <path class="st0" d="M90,76.1c-0.1,0.1-0.2,0-0.1-0.1C89.9,76,90,76,90,76.1"></path> </g> <g> <path class="st0" d="M88,87.9c0,0.1-0.1,0.2-0.2,0.3c-1.7,1.5-3.5,2.8-5.6,3.7c-0.7,0.3-1.4,0.6-2.2,0.7c-0.7,0.1-1.4,0.1-2,0 c-1.6-0.2-3.2-0.7-4.8-1c-1.5-0.3-3-0.7-4.6-0.8c-1.7-0.1-3.3-0.1-4.8,0.6c-1.3,0.6-2.4,1.3-3.4,2.3c-1.6,1.5-2.8,3.2-3.8,5.1 c-0.1,0.2-0.2,0.3-0.3,0.4c0,0-0.1,0,0,0.1c-0.1,0-0.1,0.1-0.1,0.1c0,0,0,0.1-0.1,0.1c0-0.1-0.1-0.2-0.1-0.2c0-0.1,0-0.1,0-0.1 c0.1,0,0.1-0.1,0.1-0.2c0.3-0.9,0.7-1.7,1.2-2.6c1-1.9,2.2-3.6,3.7-5.1c1.5-1.5,3.3-2.7,5.3-3.3c0.9-0.2,1.7-0.4,2.6-0.4 c0.8-0.1,1.6-0.1,2.4-0.1c1.2,0,2.5,0.1,3.7,0.2c1.1,0.1,2.1,0.2,3.2,0.3c0.6,0.1,1.2,0.2,1.8,0.2c1.1,0.1,2.1,0.2,3.2,0.2 c0.7,0,1.5,0,2.2,0c0.8,0,1.5-0.2,2.3-0.3C87.9,87.9,88,87.9,88,87.9"></path> </g> <g> <path class="st0" d="M85,77.7c-0.1,0.1-0.1,0-0.1-0.1C84.9,77.6,84.9,77.6,85,77.7"></path> </g> <g> <path class="st0" d="M84.8,77.5c0,0.1,0,0.2,0.1,0.1c-0.1,0.2-0.3,0.3-0.5,0.3v0v-0.1v-0.1C84.6,77.7,84.7,77.6,84.8,77.5"></path> </g> <g> <path class="st0" d="M84.5,77.9L84.5,77.9C84.4,78,84.4,77.9,84.5,77.9"></path> </g> <g> <path class="st0" d="M84.5,77.9L84.5,77.9c-0.1,0.1,0,0.1,0,0.1v0c-0.1,0-0.1,0-0.1,0.1c0,0,0,0,0.1-0.1c0,0,0-0.1-0.1-0.1 C84.4,77.9,84.4,77.9,84.5,77.9"></path> </g> <g> <path class="st0" d="M84.4,78C84.4,78,84.4,78.1,84.4,78L84.4,78C84.4,78,84.4,78,84.4,78"></path> </g> <g> <path class="st0" d="M84.3,77.9v0.1c0,0.1-0.1,0.1-0.1,0.1c-0.1-0.1-0.1-0.1-0.2,0C84.1,78.1,84.2,78,84.3,77.9"></path> </g> <g> <path class="st0" d="M84.2,78.2c-0.1,0.1-0.1,0.1-0.2,0.1c0,0-0.1,0-0.1,0c-0.1,0-0.1,0-0.1-0.1c0-0.1,0.1-0.1,0.2-0.1 C84.1,78.2,84.2,78.2,84.2,78.2"></path> </g> <g> <path class="st0" d="M84.2,78.2c-0.1,0-0.1,0-0.2,0C84.1,78.1,84.2,78.1,84.2,78.2"></path> </g> <g> <path class="st0" d="M77.9,95.4h0.6c-0.1,0.8-0.3,1.6-0.9,2.2c-0.4,0.4-0.9,0.6-1.4,0.7c-0.3,0-0.4,0.1-0.4,0.3 c-0.2,0.7-0.6,1.3-1.1,1.8c-0.6,0.6-1.4,0.9-2.3,0.9c-0.7,0-1.3,0.1-2-0.2c-0.1,0-0.1,0-0.2-0.1c-1.1-0.4-1.8-1.1-1.9-2.3 c-0.1-1.2,0.3-2.3,1.2-3c0.8-0.6,1.6-0.5,2.3,0.1c0.4,0.3,0.5,0.8,0.1,1.2c-0.3,0.4-0.7,0.6-1.2,0.6c-0.1,0-0.2,0-0.3,0 c-0.6,0-0.8,0.2-0.8,0.8c-0.1,1,0.5,1.8,1.3,2.1c1.1,0.3,2.3-0.4,2.7-1.4c0.2-0.5,0.2-1,0.1-1.5c-0.3-1.3-0.9-2.4-1.9-3.3 c-0.7-0.6-1.6-0.9-2.6-0.9c-1.5-0.1-2.9,0.2-4.3,0.9c-1.5,0.7-2.8,1.7-4.1,2.8c-1,0.8-1.8,1.8-2.7,2.8c-0.1,0-0.1-0.1-0.2-0.1 c0.7-1.2,1.6-2.4,2.5-3.4c0.9-1,1.8-1.9,2.9-2.6c1-0.7,2.1-1.2,3.2-1.4c0.8-0.2,1.6-0.2,2.3-0.1c0.5,0.1,1.1,0.1,1.6,0.2 c1.1,0.2,2.2,0.7,3.1,1.4c0.2,0.2,0.4,0.3,0.6,0.5C75.5,95,76.6,95.4,77.9,95.4"></path> </g> <g> <path class="st0" d="M72,15.9c0.2,1.5,0.2,3-0.2,4.6c-0.1,0.5-0.3,0.9-0.5,1.3c-0.7,1.2-1.7,1.9-3,2.1c-0.5,0.1-1,0.1-1.6,0.1 c-0.1,0.2,0,0.4,0,0.6c0,0.3-0.1,0.5-0.4,0.6c-1,0.5-1.9,0.5-2.8-0.2c-0.9-0.8-2.1-1.1-3.2-1.3c-0.8-0.1-1.6-0.1-2.3,0.1 c-0.8,0.2-1.6,0.6-2.2,1.2c-0.1,0.1-0.1,0.1-0.2,0.2c-0.1-0.1-0.1-0.2-0.2-0.3c0.5-0.9,1.2-1.7,2-2.3c1.3-1.1,2.8-1.7,4.4-2 c1-0.2,2-0.4,2.9-0.7c1.2-0.3,2.4-0.8,3.5-1.4c0.9-0.5,1.8-1.2,2.4-2c0.4-0.5,0.6-1,0.8-1.6l0.2-0.2C72,15,72,15.5,72,15.9"></path> </g> <g> <path class="st0" d="M71.8,14.4c0.1,0,0.1,0.1,0.1,0.2c-0.2-0.1-0.1,0.2-0.2,0.2c0-0.1,0-0.2,0.1-0.3 C71.7,14.5,71.7,14.4,71.8,14.4"></path> </g> <g> <path class="st0" d="M71.8,14.6l-0.2,0.2C71.7,14.8,71.6,14.6,71.8,14.6"></path> </g> <g> <path class="st0" d="M71.4,69.6v0.3c0,0.1-0.1,0.2-0.1,0.3c-0.1,0.1-0.1,0.1-0.2,0.1c-2.4,1.9-5,3.4-7.9,4.3 c-1.5,0.5-3,0.8-4.6,1.1c-1.9,0.4-3.9,0.5-5.9,0.3c-3-0.2-5.9-0.8-8.6-2.3c-3.1-1.7-5.5-4.2-6.9-7.5c-0.6-1.3-0.9-2.8-1-4.2 c-0.2-2.4,0-4.8,0.9-7.1c1.6-4.2,4.4-7.3,8.4-9.3c1.6-0.8,3.3-1.3,5-1.6c2-0.3,4-0.3,6-0.1c1.1,0.1,2.1,0.2,3.1,0.4 c2.6,0.6,5.1,1.5,7.4,3c0.3,0.2,0.6,0.4,0.9,0.5c0.7,0.2,0.9,0.1,1.4-0.4c0.1-0.1,0.1-0.1,0.1-0.2c0.3,0.2,0.6,0.3,0.7,0.5 c-0.4,0.6-0.8,1.1-1.1,1.7c-0.9,1.3-1.8,2.7-2.7,4c-0.1,0.1-0.2,0.2-0.3,0.4c0,0-0.1,0.1-0.1,0.1c0,0-0.1,0-0.1,0 c-0.2-0.1-0.3-0.2-0.5-0.3c-0.1-0.1-0.1-0.2-0.1-0.2c0.3-0.6,0.1-1-0.3-1.4c-0.4-0.4-0.8-0.8-1.3-1.1c-1.4-0.9-2.9-1.6-4.5-2.1 c-1.9-0.6-3.8-0.8-5.8-0.8c-2,0.1-3.9,0.3-5.7,1.2c-2,0.9-3.8,2.2-5,4.2c-0.7,1.2-1.2,2.5-1.4,3.8c-0.3,1.3-0.3,2.7-0.2,4.1 c0.3,4.7,3.3,8.5,7.6,10.1c1.4,0.5,2.8,0.8,4.3,0.8c1.2,0,2.4,0,3.5-0.2c2.7-0.4,5.3-1.2,7.6-2.6c0.3-0.2,0.6-0.4,0.9-0.6 c0.1-0.1,0.2-0.2,0.2-0.4v-4c0-0.2-0.1-0.2-0.2-0.2h-0.4h-6.2c-0.3,0-0.6,0-0.9,0.1c-0.7,0.1-1.1,0.4-1.2,1.2 c-0.2,0.1-0.3,0.1-0.4,0.1c-0.2,0-0.3,0-0.3-0.2v-0.3v-6.1c0-0.1,0-0.2,0-0.4c0-0.1,0.1-0.1,0.1-0.1h0.4c0.1,0,0.3,0.1,0.3,0.2 v0.2c0.1,0.7,0.5,1.1,1.2,1.3C58.2,60,58.6,60,59,60h7.1h4.5H71c0.4,0,0.4,0.1,0.4,0.5c0,0.2-0.1,0.2-0.3,0.3c-0.1,0-0.1,0-0.2,0 c-0.3,0-0.5,0.3-0.6,0.6c0,0.2-0.1,0.5-0.1,0.7c0,1.9,0,3.7,0,5.6c0,0.2,0,0.4,0,0.6c0.1,0.4,0.2,0.7,0.6,0.8 c0.1,0,0.2,0.1,0.2,0.1C71.4,69.3,71.4,69.4,71.4,69.6"></path> </g> <g> <path class="st0" d="M68.4,13c0.1,0.2,0,0.3,0,0.5c-0.1,0.5-0.2,1.1-0.3,1.6c-0.5,1.6-1.6,2.6-3.2,3.1c-0.7,0.2-1.4,0.3-2.1,0.4 c-0.9,0.1-1.7,0.2-2.6,0.4c-1.5,0.2-2.7,1-3.7,2.1c-0.7,0.8-1.2,1.7-1.6,2.7c-0.1,0.2-0.1,0.3-0.2,0.5c0,0,0,0-0.1,0 c-0.2-0.1-0.2-0.3-0.3-0.5c-0.4-1-0.9-1.9-1.6-2.7c-1-1.2-2.2-1.9-3.7-2.1c-0.9-0.2-1.8-0.2-2.7-0.4c-0.8-0.1-1.6-0.3-2.4-0.6 c-1.4-0.6-2.4-1.6-2.8-3.1c-0.2-0.6-0.3-1.3-0.3-1.9c0.2,0,0.2,0.1,0.3,0.2c0.6,0.7,1.3,1,2.2,0.9c0.3,0,0.7-0.1,1-0.1 c0.9-0.1,1.7-0.1,2.6,0.1c1,0.3,1.8,0.8,2.3,1.8c0.1,0.2,0.2,0.4,0.3,0.6c0.4,0.8,1,1.3,1.8,1.6c0.5,0.2,1,0.2,1.5,0.4 c0.1,0,0.2,0,0.2-0.1c0.1-0.4,0.1-0.7-0.1-1c-0.2-0.4-0.5-0.8-0.9-1.1s-0.8-0.5-1.2-0.8c-0.3-0.2-0.6-0.4-0.8-0.6 c-0.2-0.2-0.3-0.3-0.5-0.5c-0.6-0.6-0.8-1.3-0.7-2.1c0.1-0.8,0.4-1.5,1.2-2c0.6-0.4,1.2-0.8,1.8-1.3c1-0.9,1.8-2.1,2.5-3.2 c0-0.1,0-0.1,0.1-0.1C54.7,5,54.6,5,55,5.7c0.5,0.9,1.1,1.7,1.8,2.5c0.5,0.6,1.1,1.2,1.8,1.6c0.2,0.2,0.5,0.3,0.7,0.5 c1.1,0.7,1.3,1.8,1.1,3c-0.1,0.4-0.3,0.7-0.5,1c-0.3,0.4-0.7,0.7-1.1,0.9c-0.4,0.3-0.9,0.6-1.3,0.9c-0.4,0.3-0.7,0.7-1,1.1 c-0.2,0.3-0.3,0.6-0.2,1c0,0.2,0.2,0.3,0.3,0.2c0.2-0.1,0.5-0.2,0.8-0.2c0.2-0.1,0.4-0.1,0.6-0.2c0.8-0.3,1.5-0.8,1.8-1.6 c0.1-0.2,0.1-0.3,0.2-0.5c0.4-1,1.2-1.5,2.2-1.8c0.9-0.2,1.7-0.2,2.6-0.1c0.4,0,0.7,0.1,1.1,0.1c0.9,0.1,1.6-0.2,2.2-0.8 C68.2,13.2,68.2,13.1,68.4,13"></path> </g> <g> <path class="st0" d="M65,25.9C65,26,65,26,65,25.9c-0.2,0.1-0.3,0-0.2,0.2c-0.2,0.1-0.5,0-0.7-0.1c0,0,0-0.1,0-0.1 C64.4,25.9,64.7,25.9,65,25.9"></path> </g> <g> <path class="st0" d="M64.9,26c-0.1,0.1-0.1,0.1-0.2,0.2C64.7,26,64.8,26,64.9,26"></path> </g> <g> <path class="st0" d="M64.6,32.5c0.1,0.7,0.1,1.3,0,2c-0.1,0.3-0.1,0.6-0.3,0.8c-0.5,1.1-0.7,2.1-0.1,3.2c-0.3,0.2-0.6,0.3-1,0.3 c-0.4,0.1-0.9,0.1-1.4,0.1c-0.5-0.1-1-0.4-1.2-0.9c-0.1-0.2-0.2-0.2-0.4-0.2c-0.6,0-1.2,0.1-1.8-0.1c-1.4-0.4-2.2-1.4-2.4-2.9 c-0.2-1.5,0.8-2.5,1.9-2.9c0.5-0.2,1-0.3,1.5-0.2c0.4,0,0.8,0.2,1.1,0.5c0.3,0.4,0.4,0.8,0.3,1.3c-0.1,0.2-0.2,0.4-0.4,0.6 c-0.2,0.1-0.4,0.2-0.6,0.3c-0.1,0.1-0.2,0.2-0.4,0.2c-0.4,0.2-0.6,1.1-0.1,1.4c0.4,0.3,0.9,0.4,1.4,0.4c0.8-0.1,1.3-0.6,1.6-1.3 c0.4-0.8,0.4-1.7,0.3-2.6c0-0.1,0-0.2-0.1-0.2c-0.2-1-0.7-1.7-1.5-2.2c-0.9-0.6-2-0.8-3.1-0.7c-1.1,0.1-2.1,0.6-3,1.2h-0.1 c0.2-0.5,0.6-0.8,0.9-1.1c0.9-0.6,1.8-0.9,2.9-1c0.7,0,1.3,0,2,0.1C63,28.9,64.3,30.6,64.6,32.5"></path> </g> <g> <path class="st0" d="M64.1,25.9c0,0,0,0.1,0,0.1C64,26,64,26,64.1,25.9C64.1,25.9,64.1,25.9,64.1,25.9"></path> </g> <g> <path class="st0" d="M64.1,25.9C64.1,25.9,64.1,25.9,64.1,25.9C64,26,64,26,64.1,26c-0.1,0-0.1,0-0.2,0c-0.1,0-0.1,0-0.1-0.1 c0-0.1,0.1-0.1,0.1-0.1C64,25.9,64,25.9,64.1,25.9"></path> </g> <g> <path class="st0" d="M58.3,99.9c-0.1,0-0.2,0-0.2-0.1C58.2,99.8,58.2,99.8,58.3,99.9"></path> </g> <g> <path class="st0" d="M58.1,99.7c0,0.1,0,0.2,0.2,0.1c-0.1,0.2-0.2,0.3-0.3,0.4h-0.1c0,0,0,0-0.1,0C57.9,100,58,99.9,58.1,99.7"></path> </g> <g> <path class="st0" d="M58,100.3c0,0,0,0.1-0.1,0.1h0c-0.1-0.1-0.1-0.1-0.1,0c0-0.1,0.1-0.1,0.1-0.1 C57.8,100.3,57.8,100.3,58,100.3C57.9,100.3,57.9,100.3,58,100.3"></path> </g> <g> <path class="st0" d="M58,100.3C57.9,100.3,57.9,100.3,58,100.3L58,100.3z"></path> </g> <g> <path class="st0" d="M57.9,100.4L57.9,100.4c0,0.1-0.1,0.2-0.2,0.3h-0.1c0.1-0.1,0.1-0.2,0.2-0.3H57.9z"></path> </g> <g> <path class="st0" d="M57.9,100.4h-0.1C57.8,100.3,57.8,100.3,57.9,100.4"></path> </g> <g> <path class="st0" d="M57.7,100.6c0,0-0.1,0-0.1,0H57.7z"></path> </g> <g> <path class="st0" d="M57.6,100.6c0.1,0,0.1,0,0.1,0c0,0.1,0,0.1-0.1,0.1C57.6,100.8,57.6,100.7,57.6,100.6"></path> </g> <g> <path class="st0" d="M56.5,99.1c0,0.1,0,0.1-0.1,0.2C56.4,99.2,56.4,99.2,56.5,99.1C56.4,99.1,56.5,99.1,56.5,99.1"></path> </g> <g> <path class="st0" d="M56.5,99.1c0,0,0,0.1-0.1,0.1C56.4,99.2,56.4,99.2,56.5,99.1"></path> </g> <g> <path class="st0" d="M56.4,98.8c0,0.1,0,0.1-0.1,0.2C56.3,98.9,56.3,98.9,56.4,98.8C56.3,98.8,56.3,98.8,56.4,98.8"></path> </g> <g> <path class="st0" d="M56.3,99.3c0,0.1-0.1,0.2-0.1,0.3c-0.1-0.1-0.1-0.1-0.1-0.2c0-0.1,0-0.2,0.1-0.3 C56.2,99.3,56.2,99.3,56.3,99.3"></path> </g> <g> <path class="st0" d="M56.3,99.1c0,0.1,0.1,0.2,0.1,0.2C56.2,99.3,56.2,99.3,56.3,99.1C56.2,99.1,56.2,99.1,56.3,99.1"></path> </g> <g> <path class="st0" d="M56.3,98.9C56.3,98.9,56.3,98.9,56.3,98.9C56.3,98.9,56.3,98.9,56.3,98.9"></path> </g> <g> <path class="st0" d="M56.1,99.4c0.1,0.1,0.1,0.1,0.1,0.2C56.1,99.6,56.1,99.5,56.1,99.4"></path> </g> <g> <path class="st0" d="M56.2,99.6c0,0.1-0.1,0.2-0.1,0.2c-0.1-0.1-0.1-0.1-0.2-0.1c0-0.1,0.1-0.2,0.1-0.3 C56.1,99.5,56.1,99.6,56.2,99.6"></path> </g> <g> <path class="st0" d="M56.1,99.9c-0.1,0.1-0.1,0.2-0.1,0.3c-0.1-0.1-0.1-0.1-0.1,0h0c0-0.1,0-0.2,0.1-0.3 C56,99.9,56,99.9,56.1,99.9"></path> </g> <g> <path class="st0" d="M56.1,99.9c-0.1,0-0.2,0-0.2-0.1c0,0,0-0.1,0-0.1C56,99.8,56.1,99.8,56.1,99.9"></path> </g> <g> <path class="st0" d="M56,100.1c-0.1,0.1-0.1,0.3-0.1,0.4c-0.1,0-0.1-0.1-0.1-0.1c0-0.1,0-0.2,0.1-0.3h0H56z"></path> </g> <g> <path class="st0" d="M56,100.1h-0.1C55.9,100,56,100,56,100.1"></path> </g> <g> <path class="st0" d="M55.9,27.3c0,0.1-0.1,0.1-0.1,0.1c-0.1,0-0.1,0-0.1-0.2C55.7,27.3,55.8,27.3,55.9,27.3"></path> </g> <g> <path class="st0" d="M55.9,100.5c-0.1,0.1-0.1,0.2-0.1,0.2c0,0-0.1,0.1-0.1,0.1c0-0.1-0.1-0.1-0.1-0.1c0-0.1,0-0.2,0.1-0.3 C55.8,100.4,55.8,100.5,55.9,100.5"></path> </g> <g> <path class="st0" d="M55.6,27.2c0,0.2,0.1,0.2,0.1,0.2c-0.2,0.1-0.3,0.2-0.5,0.3v0v-0.1C55.3,27.4,55.5,27.3,55.6,27.2"></path> </g> <g> <path class="st0" d="M55.4,24.9c0,0.1,0,0.2,0.2,0.3C55.3,25.2,55.3,25.1,55.4,24.9"></path> </g> <g> <path class="st0" d="M55.5,25.2c-0.1,0.2-0.2,0.2-0.3,0.4c-0.1-0.1-0.1-0.1-0.1-0.2c0-0.2,0.1-0.3,0.3-0.5 C55.3,25.1,55.3,25.2,55.5,25.2"></path> </g> <g> <path class="st0" d="M55.2,27.5v0.1C55.2,27.6,55.2,27.6,55.2,27.5C55.2,27.6,55.2,27.5,55.2,27.5"></path> </g> <g> <path class="st0" d="M55.1,25.4c0,0.1,0.1,0.1,0.1,0.2C55.1,25.5,55.1,25.5,55.1,25.4C55.1,25.4,55.1,25.4,55.1,25.4"></path> </g> <g> <path class="st0" d="M55.2,25.5c-0.1,0.1-0.2,0.3-0.2,0.4c-0.1,0-0.1,0-0.2,0c0-0.2,0.1-0.3,0.2-0.5 C55.1,25.5,55.1,25.5,55.2,25.5"></path> </g> <g> <path class="st0" d="M55.2,27.5C55.2,27.5,55.2,27.6,55.2,27.5c-0.1,0.1,0,0.1,0,0.1v0c-0.1,0-0.1,0-0.1,0c0,0,0,0,0.1,0 c0,0,0,0,0-0.1v-0.1C55.2,27.6,55.2,27.6,55.2,27.5"></path> </g> <g> <path class="st0" d="M55.1,27.6C55.2,27.7,55.2,27.7,55.1,27.6C55.1,27.7,55.1,27.7,55.1,27.6C55.1,27.7,55.1,27.7,55.1,27.6"></path> </g> <g> <path class="st0" d="M55.1,27.6L55.1,27.6c0,0.1,0,0.1,0,0.1c0,0.1-0.1,0.2-0.2,0.1c0,0,0-0.1,0.1-0.2 C55,27.6,55.1,27.6,55.1,27.6"></path> </g> <g> <path class="st0" d="M55,25.9C55,25.9,55,26,55,25.9c-0.1,0.1-0.1,0-0.2,0C54.9,25.9,55,25.9,55,25.9"></path> </g> <g> <path class="st0" d="M55,26c0,0.1-0.1,0.1-0.1,0.2c0,0.1-0.1,0.1-0.1,0c0,0,0,0,0-0.1c0-0.1,0-0.2,0.1-0.2C54.9,26,54.9,26,55,26 "></path> </g> <g> <path class="st0" d="M55,100C55,100,55,100,55,100c-0.2,0-0.2-0.1-0.1-0.2C54.9,99.8,54.9,99.9,55,100"></path> </g> <g> <path class="st0" d="M55,100c0.1,0.2-0.1,0.3-0.1,0.5c-0.1,0-0.1-0.1-0.1-0.1c0,0,0,0-0.1,0v0v-0.2v0c0.1-0.1,0-0.3,0.1-0.4 c0,0,0,0,0,0C54.8,99.9,54.8,100,55,100"></path> </g> <g> <path class="st0" d="M55,30.4l-0.1,0.1c0,0-0.1-0.1-0.1-0.1c0-0.1,0-0.1,0.1-0.1C54.9,30.5,55,30.5,55,30.4"></path> </g> <g> <path class="st0" d="M55,30.4c0,0.1-0.1,0.1-0.1,0H55z"></path> </g> <g> <path class="st0" d="M54.9,100.5L54.9,100.5l-0.2,0v0v-0.1c0,0,0,0,0.1,0C54.8,100.4,54.8,100.5,54.9,100.5"></path> </g> <g> <path class="st0" d="M54.9,100.5c-0.1,0.2-0.1,0.3-0.2,0.5c0,0-0.1,0-0.1,0c-0.1,0-0.1,0-0.1-0.1c-0.1-0.2-0.1-0.3-0.1-0.5 c0.1-0.1,0.1-0.2,0.1-0.3c0.1,0.1,0.1,0.2,0.2,0.3v0H54.9z"></path> </g> <g> <path class="st0" d="M54.7,100.3L54.7,100.3v0.2C54.7,100.4,54.7,100.4,54.7,100.3C54.7,100.3,54.7,100.3,54.7,100.3"></path> </g> <g> <path class="st0" d="M54.7,100.1v0.2c0,0,0-0.1-0.1-0.1C54.7,100.2,54.7,100.2,54.7,100.1"></path> </g> <g> <path class="st0" d="M54.7,100.1L54.7,100.1c0,0.1-0.1,0.1-0.1,0.2c0,0-0.1-0.1-0.1-0.1c0-0.1,0-0.2,0-0.2 C54.6,100,54.7,100.1,54.7,100.1"></path> </g> <g> <path class="st0" d="M54.7,100.3c0,0.1,0,0.1,0.1,0.2c-0.1-0.1-0.1-0.2-0.2-0.3C54.6,100.2,54.6,100.3,54.7,100.3"></path> </g> <g> <path class="st0" d="M54.5,100c0,0.1,0,0.2,0,0.2V100z"></path> </g> <g> <path class="st0" d="M54.5,100v0.2h0c-0.1,0.1-0.1,0.1-0.1,0.2c-0.1-0.1-0.1-0.3-0.1-0.4c0.3-0.1,0.2-0.3,0.1-0.4 C54.5,99.7,54.5,99.9,54.5,100"></path> </g> <g> <path class="st0" d="M54.5,100.2L54.5,100.2c0,0.1,0,0.2-0.1,0.3v-0.1C54.4,100.4,54.4,100.3,54.5,100.2"></path> </g> <g> <path class="st0" d="M54.4,25.8c0.1,0.1,0.1,0.1,0.1,0.2c0,0.1,0,0.1-0.1,0.1c0,0-0.1,0-0.1-0.1c0-0.1-0.1-0.1-0.1-0.2 C54.4,25.9,54.4,25.9,54.4,25.8"></path> </g> <g> <path class="st0" d="M54.5,30.5c0,0.1-0.1,0.1-0.2,0c0.1-0.1,0.1-0.1,0-0.2C54.4,30.3,54.5,30.4,54.5,30.5"></path> </g> <g> <path class="st0" d="M54.4,99.5c0,0.2,0.1,0.4-0.1,0.4v0c0.1-0.1,0.1-0.2,0.1-0.3C54.3,99.6,54.4,99.6,54.4,99.5L54.4,99.5 C54.4,99.5,54.4,99.5,54.4,99.5"></path> </g> <g> <path class="st0" d="M54.4,25.8c0.1,0.1,0,0.2-0.1,0.1C54.3,25.9,54.3,25.8,54.4,25.8"></path> </g> <g> <path class="st0" d="M54.4,30.3c0.1,0.1,0.1,0.1,0,0.2C54.4,30.4,54.4,30.3,54.4,30.3"></path> </g> <g> <path class="st0" d="M54.4,99.5C54.4,99.5,54.4,99.5,54.4,99.5L54.4,99.5L54.4,99.5z"></path> </g> <g> <path class="st0" d="M54.4,99.5L54.4,99.5c0,0.1,0,0.2,0,0.2c0,0.1,0,0.2-0.1,0.3c-0.4-1.3-0.9-2.6-1.6-3.8c-1-2.1-2.2-4-3.8-5.6 c-1.7-1.8-3.7-3-6-3.9c-1.3-0.4-2.5-0.8-3.9-0.9c-0.9-0.1-1.9-0.2-2.8-0.3c-0.7,0-1.5-0.1-2.2,0c-1,0.1-2,0-3,0.2 c-0.7,0.1-1.5,0.1-2.3,0.2c-0.7,0.1-1.3,0.1-2,0.2c-0.5,0.1-1,0.1-1.5,0.1c-1.2,0.1-2.3,0.2-3.5,0.2c-2.9-0.2-5.2-1.4-6.7-4 c-0.4-0.7-0.7-1.5-0.9-2.3c-0.4-1.5-0.6-3.1-0.6-4.7c0-0.1,0-0.2,0.1-0.2c0.1,0,0.1,0.1,0.2,0.1c0.2,0.2,0.4,0.4,0.6,0.7 c1.2,1.2,2.6,1.9,4.1,2.4c1.2,0.4,2.4,0.7,3.6,0.9c0.9,0.2,1.7,0.3,2.6,0.5c1.2,0.2,2.4,0.4,3.5,0.6c2.5,0.4,5,0.9,7.5,1.5 c1.5,0.3,3,0.6,4.5,1.1c2.4,0.8,4.6,2,6.6,3.6c2.3,1.8,4,4,5.4,6.7c1,1.9,1.7,3.9,2.1,5.9C54.3,99.2,54.3,99.3,54.4,99.5"></path> </g> <g> <path class="st0" d="M54.4,30.3c0,0.1,0,0.1,0,0.2c-0.2-0.1-0.3-0.2-0.4-0.3c0.2,0,0.2,0,0.2-0.2C54.3,30,54.3,30.1,54.4,30.3"></path> </g> <g> <path class="st0" d="M54.2,25.5c0.1,0.1,0.1,0.1,0.1,0.2c0,0.1-0.1,0.1-0.1,0.1c-0.1-0.1-0.1-0.2-0.1-0.2 C54.2,25.7,54.3,25.7,54.2,25.5"></path> </g> <g> <path class="st0" d="M54.2,27.7c0.1,0,0.1,0.1,0.1,0.1c-0.1,0-0.1,0-0.2,0c0,0,0,0,0-0.1v-0.1v0C54.2,27.6,54.2,27.6,54.2,27.7"></path> </g> <g> <path class="st0" d="M54.2,25.5c0.1,0.1,0,0.2-0.1,0.1C54.2,25.6,54.2,25.6,54.2,25.5"></path> </g> <g> <path class="st0" d="M54.2,25.5c-0.1,0-0.1,0.1-0.1,0.1c-0.1-0.1-0.2-0.3-0.3-0.4c0.1,0,0.2,0,0.2-0.2 C54.1,25.2,54.2,25.4,54.2,25.5"></path> </g> <g> <path class="st0" d="M54.1,30c0,0.1,0,0.2-0.2,0.2C54,30.1,54.1,30.1,54.1,30"></path> </g> <g> <path class="st0" d="M54.1,29.9c0.1,0,0.1,0.1,0.1,0.1c-0.1,0.1-0.1,0.1-0.2,0.2c0,0-0.1,0-0.1-0.1c0-0.1-0.1-0.1-0.1-0.1 c-0.6-0.3-1.1-0.6-1.8-0.7c-1.5-0.3-3-0.1-4.2,0.9c-0.5,0.4-0.9,1-1.1,1.6c-0.2,1-0.2,1.9,0.1,2.8c0.3,0.8,0.8,1.3,1.7,1.5 c0.6,0.1,1-0.1,1.4-0.3c0.6-0.4,0.5-1.1-0.1-1.4c-0.2-0.2-0.5-0.3-0.7-0.4c-0.4-0.2-0.7-0.5-0.7-1c0-0.5,0.2-1,0.7-1.2 c0.4-0.2,0.8-0.3,1.2-0.2c1,0.1,1.8,0.4,2.4,1.2c0.3,0.4,0.5,0.9,0.5,1.4c0,0.4,0,0.9-0.2,1.3c-0.3,0.9-0.9,1.6-1.8,1.9 c-0.4,0.2-0.8,0.3-1.3,0.3c-0.2,0-0.4,0-0.7,0c-0.4-0.1-0.7,0.1-0.9,0.5c-0.2,0.4-0.7,0.6-1.1,0.7c-0.8,0.1-1.5,0-2.2-0.3 c-0.1,0-0.1-0.1-0.1-0.1c0.2-0.4,0.3-0.8,0.3-1.2c0-0.6-0.1-1.2-0.4-1.7c-0.7-1.6-0.6-3.1,0.2-4.6c0.6-1.2,1.5-1.9,2.7-2.2 c1.3-0.4,2.7-0.4,4.1,0c0.8,0.2,1.4,0.6,2,1.2L54.1,29.9C54,29.9,54,29.9,54.1,29.9"></path> </g> <g> <path class="st0" d="M54.1,27.6v0.1C54.1,27.7,54.1,27.7,54.1,27.6C54.1,27.6,54.1,27.6,54.1,27.6"></path> </g> <g> <path class="st0" d="M54.1,27.6L54.1,27.6C54.1,27.6,54.1,27.6,54.1,27.6c-0.1,0.1,0,0.1,0,0.1c-0.1,0-0.1,0-0.1-0.1c0,0,0,0,0,0 c0,0,0,0,0-0.1v-0.1C54,27.5,54.1,27.6,54.1,27.6"></path> </g> <g> <path class="st0" d="M54,29.8C54,29.8,54.1,29.9,54,29.8C54,29.9,54,29.9,54,29.8"></path> </g> <g> <path class="st0" d="M54,25.1c0.1,0.2,0,0.2-0.2,0.2C53.9,25.2,54,25.2,54,25.1"></path> </g> <g> <path class="st0" d="M54,27.5C54,27.6,54,27.6,54,27.5C54,27.6,54,27.6,54,27.5L54,27.5z"></path> </g> <g> <path class="st0" d="M54,25.1l-0.2,0.2c-0.2-0.2-0.4-0.4-0.7-0.6c-0.6-0.5-1.3-0.8-2.1-0.9c-1.6-0.3-3.1,0-4.5,0.7 c-0.3,0.1-0.5,0.3-0.7,0.5c-0.5,0.4-1.1,0.6-1.7,0.6c-0.4,0-0.9-0.2-1.2-0.4c-0.2-0.1-0.3-0.3-0.3-0.5c0-0.2,0-0.4,0-0.6 c-0.1-0.1-0.3-0.1-0.4-0.1c-0.7,0-1.3-0.1-1.9-0.3c-1.2-0.4-1.9-1.2-2.5-2.3c-0.4-0.8-0.6-1.7-0.6-2.6c-0.1-1.4,0-2.9,0.3-4.3 c0-0.1,0-0.1,0.1-0.1c0,0,0.1,0,0.1,0.1v0.1c0.4,1.6,1.4,2.7,2.7,3.6c0.7,0.4,1.4,0.8,2.2,1.1c1.1,0.5,2.3,0.8,3.5,1 c0.8,0.2,1.5,0.3,2.3,0.5c1.4,0.4,2.7,1.1,3.8,2C52.9,23.4,53.5,24.2,54,25.1"></path> </g> <g> <path class="st0" d="M54,27.5L54,27.5v0.1c-0.2-0.1-0.4-0.1-0.5-0.2c0.1,0,0.1,0,0.1-0.2C53.8,27.3,53.9,27.4,54,27.5"></path> </g> <g> <path class="st0" d="M53.9,30.1c-0.1,0-0.1,0-0.1-0.1C53.8,30,53.8,30,53.9,30.1"></path> </g> <g> <path class="st0" d="M53.5,100.4c0.1,0.1,0.1,0.1,0.1,0.2c0,0,0,0.1-0.1,0.1l0,0c-0.1-0.1-0.1-0.2-0.2-0.3H53.5L53.5,100.4z"></path> </g> <g> <path class="st0" d="M53.6,27.2c0,0.1,0,0.2-0.1,0.2v0C53.5,27.3,53.6,27.3,53.6,27.2"></path> </g> <g> <path class="st0" d="M53.6,27.2c0,0.1-0.1,0.1-0.1,0.1h0c-0.1,0-0.1,0-0.2-0.1c-1.1-0.4-2.2-0.5-3.3-0.4 c-1.4,0.2-2.6,0.6-3.8,1.3c-0.2,0.1-0.4,0.3-0.7,0.5c-0.3,0.3-0.6,0.6-0.8,1c-0.5,1-1.2,1.7-2.1,2.3c-0.2,0.1-0.3,0.2-0.4,0.5 c-0.1,0.4-0.2,0.8-0.5,1.2c-0.6,0.8-1.3,1.2-2.3,1c-0.1,0-0.1,0-0.1,0c-0.1,0-0.2,0-0.2,0.2c0,0.1,0,0.3,0,0.4 C39,35.5,39,35.8,38.9,36c-0.3,0.8-0.9,1.3-1.9,1.3c-0.3,0-0.7,0-1-0.2c-0.3-0.1-0.3-0.1-0.5,0.2c-0.4,0.7-0.8,1.4-1.4,1.9 c-1.3,1.4-2.9,2.2-4.8,2.5c-0.7,0.1-1.5,0.2-2.2,0.2c-1.3,0-2.6-0.1-3.9-0.4c-1.6-0.3-3-0.8-4.5-1.4c-0.1,0-0.2-0.1-0.3-0.1 c0.1-0.1,0.2-0.1,0.3-0.1c0.6,0,1.3,0,1.9-0.1c1.1-0.1,2.2-0.4,3.3-0.7c2.1-0.7,4.1-1.6,6-2.7c2.9-1.6,5.6-3.3,8.3-5.2 c1.8-1.2,3.6-2.3,5.4-3.4c0.7-0.4,1.3-0.7,2-1.1c0.4-0.2,0.9-0.3,1.3-0.5c0.9-0.3,1.9-0.5,2.8-0.4C51.1,26,52.5,26.4,53.6,27.2"></path> </g> <g> <path class="st0" d="M53.5,100.4L53.5,100.4c-0.1-0.1-0.1-0.1-0.2,0c0-0.1-0.1-0.2-0.1-0.3c0.1,0,0.2,0,0.1-0.1 C53.5,100.1,53.5,100.2,53.5,100.4"></path> </g> <g> <path class="st0" d="M53.4,100.4c0.1-0.1,0.1-0.1,0.2,0H53.4z"></path> </g> <g> <path class="st0" d="M53.4,100c0.1,0.1,0,0.1-0.1,0.1v0C53.3,100.1,53.3,100,53.4,100"></path> </g> <g> <path class="st0" d="M53.4,100L53.4,100c0,0.1-0.1,0.1-0.1,0.1c-0.1-0.3-0.3-0.6-0.4-0.9c0.1,0,0.2,0,0.2-0.1 C53.2,99.4,53.3,99.7,53.4,100"></path> </g> <g> <path class="st0" d="M53,99.1C53,99.1,53,99.1,53,99.1c0,0.1-0.1,0.2-0.2,0.1C52.9,99.2,53,99.1,53,99.1"></path> </g> <g> <path class="st0" d="M53,99.1L53,99.1c-0.1,0.1-0.1,0.1-0.2,0.2c-0.3-0.6-0.7-1.2-1.1-1.8c-0.9-1.4-1.9-2.8-3.2-3.9 c-1-0.9-2-1.7-3.3-2.2c-0.9-0.4-1.9-0.6-2.9-0.7c-1.6-0.1-3.2,0.1-4.8,0.5c-1.5,0.3-3,0.7-4.5,1c-0.8,0.2-1.6,0.3-2.3,0.4 c-1.1,0.1-2.2-0.1-3.3-0.5c-1.4-0.5-2.7-1.3-3.9-2.2c-0.8-0.6-1.6-1.2-2.3-1.8c0-0.1,0.1-0.1,0.2-0.2c0.3,0.1,0.7,0.1,1.1,0.2 c1.3,0.2,2.5,0.1,3.8,0.1c1.3,0,2.5-0.2,3.8-0.3c0.9-0.1,1.9-0.2,2.9-0.3c0.9-0.1,1.8-0.1,2.7-0.2c0.8-0.1,1.6-0.1,2.4-0.1 c1.1,0,2.2,0.1,3.3,0.3c1.4,0.2,2.7,0.8,4,1.5c1.6,0.9,2.9,2.2,4,3.6c1.5,1.8,2.6,3.9,3.5,6.1C53,98.9,53,99,53,99.1"></path> </g> <g> <path class="st0" d="M51.7,100.6L51.7,100.6c0,0.1-0.1,0.1-0.1,0.1c-0.1-0.1-0.1-0.2-0.1-0.2h0.1 C51.7,100.5,51.7,100.6,51.7,100.6"></path> </g> <g> <path class="st0" d="M51.6,100.5h-0.1C51.5,100.5,51.5,100.5,51.6,100.5"></path> </g> <g> <path class="st0" d="M51.6,100.5c-0.1-0.1-0.1-0.1-0.1,0c0,0-0.1-0.1-0.1-0.1c0.1,0,0.1,0,0.1-0.1 C51.6,100.4,51.6,100.4,51.6,100.5"></path> </g> <g> <path class="st0" d="M51.5,100.4C51.5,100.4,51.5,100.4,51.5,100.4C51.4,100.4,51.5,100.4,51.5,100.4"></path> </g> <g> <path class="st0" d="M51.5,100.4C51.5,100.4,51.4,100.4,51.5,100.4c-0.2-0.1-0.3-0.2-0.4-0.4c0.1,0,0.2,0,0.1-0.1 C51.4,100,51.5,100.1,51.5,100.4"></path> </g> <g> <path class="st0" d="M51.2,99.9c0.1,0.1,0,0.2-0.1,0.1C51.1,100,51.2,99.9,51.2,99.9"></path> </g> <g> <path class="st0" d="M51.2,99.9c-0.1,0.1-0.1,0.1-0.1,0.1c-0.2-0.1-0.3-0.3-0.4-0.5c0.1,0,0.2,0,0.2-0.2 C51,99.5,51.1,99.6,51.2,99.9"></path> </g> <g> <path class="st0" d="M50.9,99.3c0,0.2,0,0.2-0.2,0.2C50.7,99.4,50.8,99.4,50.9,99.3"></path> </g> <g> <path class="st0" d="M50.7,99.1c0,0.1,0.1,0.2,0.1,0.2c-0.1,0.1-0.1,0.1-0.2,0.2c-0.5-0.6-1.1-1.1-1.6-1.7 c-1.3-1.3-2.7-2.4-4.3-3.2c-1.1-0.6-2.1-1-3.3-1.1c-0.9-0.1-1.9-0.2-2.8,0.1c-0.9,0.3-1.7,0.8-2.2,1.5c-0.5,0.7-0.9,1.5-1.1,2.4 c-0.2,0.8-0.1,1.6,0.5,2.3c0.6,0.7,1.4,1,2.3,0.7c0.9-0.3,1.5-1.3,1.3-2.2c-0.1-0.4-0.3-0.6-0.8-0.6c-0.4,0-0.9-0.1-1.2-0.4 c-0.1-0.1-0.1-0.1-0.2-0.2c-0.4-0.5-0.4-0.9,0.1-1.3c0.7-0.5,1.3-0.6,2.1-0.1c0.8,0.5,1.2,1.3,1.4,2.2c0.2,1.5-0.5,2.6-1.7,3.1 c-0.9,0.4-1.9,0.5-2.9,0.3c-1.3-0.2-2.2-1.1-2.7-2.3c0-0.1-0.1-0.2-0.1-0.2c-0.1-0.4-0.3-0.5-0.7-0.6c-0.7-0.1-1.2-0.5-1.6-1.1 c-0.3-0.5-0.5-1.1-0.5-1.7c0.1-0.2,0.2-0.1,0.3-0.1c0.8,0,1.7-0.1,2.4-0.4c0.4-0.2,0.7-0.4,1-0.6c0.4-0.3,0.9-0.6,1.3-0.9 c1.2-0.8,2.4-1.2,3.8-1.3c0.3-0.1,0.7-0.1,1-0.1c1.3,0,2.5,0.2,3.6,0.8c1.2,0.6,2.3,1.4,3.3,2.3C48.7,96.3,49.8,97.6,50.7,99.1"></path> </g> <g> <path class="st0" d="M45.1,25.9c0.1,0,0.2,0,0.3,0c-0.1,0.1-0.1,0.1-0.2,0.1h-0.1v0L45.1,25.9C45.2,26,45.2,26,45.1,25.9 L45.1,25.9z"></path> </g> <g> <path class="st0" d="M45.2,26L45.2,26C45.1,26,45.1,26,45.2,26C45.2,26,45.2,26,45.2,26"></path> </g> <g> <path class="st0" d="M45.1,26L45.1,26c-0.2,0.2-0.4,0.2-0.7,0.1c0.1-0.2-0.1-0.2-0.2-0.2c0.3,0,0.6,0,0.8,0L45.1,26 C45.1,26,45.1,26,45.1,26"></path> </g> <g> <path class="st0" d="M44.3,25.9c0.1,0.1,0.3,0,0.2,0.2L44.3,25.9L44.3,25.9z"></path> </g> <g> <path class="st0" d="M44.3,25.9c0.1,0.1,0.2,0.2,0.2,0.2c-2.3,0.3-4.5,1-6.7,2c-1.9,0.9-3.7,2.1-5.4,3.4 c-0.9,0.7-1.8,1.4-2.6,2.2c-1.4,1.2-2.9,2.1-4.5,2.8c-1.4,0.7-2.8,1.2-4.3,1.5c-1,0.2-2,0.4-3.1,0.3c-0.7,0-1.3-0.1-1.9-0.4 c-0.4-0.1-0.7-0.3-1-0.5c-0.9-0.6-1.5-1.5-1.8-2.6c-0.4-1.4,0.6-2.7,1.7-3c0.6-0.2,1,0,1.3,0.5c0.2,0.3,0.2,0.6,0.3,0.9 c0,0.2,0.1,0.4,0.1,0.7c0,0.4,0.2,0.6,0.6,0.7c0.5,0.2,0.9,0.3,1.4,0.3c1.9,0.1,3.6-0.3,5.4-1c2.1-0.8,4-1.9,5.8-3.2 c1.5-1.1,3.1-2,4.8-2.8c1.9-0.8,3.8-1.5,5.8-1.8C41.6,26.1,42.9,25.9,44.3,25.9"></path> </g> <g> <path class="st0" d="M25,78C25.1,78.1,25.1,78.1,25,78c0.1,0.1,0,0.1,0,0.1c0,0-0.1-0.1-0.1-0.1C25,78.1,25,78.1,25,78"></path> </g> <g> <path class="st0" d="M25,78c0,0-0.1,0.1-0.1,0.1c0,0,0,0-0.1,0C24.9,78.1,25,78,25,78"></path> </g> <g> <path class="st0" d="M25,78c-0.1,0-0.1,0-0.2,0c-0.1,0-0.1,0-0.1-0.1v-0.2C24.9,77.9,25,77.9,25,78"></path> </g> <g> <path class="st0" d="M24.8,77.8V78C24.7,77.9,24.7,77.9,24.8,77.8C24.7,77.8,24.8,77.8,24.8,77.8"></path> </g> <g> <path class="st0" d="M24.8,77.8C24.8,77.8,24.7,77.8,24.8,77.8c0,0.1,0,0.1,0,0.2c0,0-0.1-0.1-0.1-0.1 C24.6,77.9,24.7,77.9,24.8,77.8c-0.1,0-0.1,0-0.1-0.1C24.7,77.7,24.7,77.8,24.8,77.8"></path> </g> <g> <path class="st0" d="M24.6,77.7c0,0,0.1,0.1,0,0.1c0,0,0,0,0,0V77.7z"></path> </g> <g> <path class="st0" d="M24.6,77.7v0.1c-0.2-0.1-0.4-0.2-0.5-0.3c0.1,0,0.1,0,0.1-0.2C24.4,77.5,24.5,77.6,24.6,77.7"></path> </g> <g> <path class="st0" d="M24.3,77.4c0,0.1,0,0.2-0.1,0.2l0,0C24.2,77.5,24.2,77.5,24.3,77.4"></path> </g> <g> <path class="st0" d="M24.3,77.4c-0.1,0.1-0.1,0.1-0.1,0.1c-3.3-2.3-5.4-5.3-6.3-9.3c-0.2-0.8-0.3-1.6-0.3-2.5 c0-0.6-0.2-1.1-0.7-1.5c-0.2-0.1-0.3-0.2-0.4-0.3c-0.1-0.1-0.2-0.2-0.4-0.3c-1-0.7-1.4-1.6-1.4-2.8c0-0.4,0-0.7-0.1-1.1 c-0.1-0.6-0.4-1.2-0.8-1.7c0.7-0.2,1.7-0.2,2.3,0.1c0.8,0.3,1.3,0.9,1.7,1.6c0.2-0.1,0.1-0.2,0.1-0.2c-0.1-1.5-0.7-2.9-1.6-4 c-0.4-0.5-0.8-0.9-1.4-1.2c-0.7-0.4-1.1-1-1.3-1.8c-0.2-0.9-0.3-1.9-0.2-2.8c0-0.8,0.1-1.6,0.2-2.3c0.1-0.9,0.1-1.9-0.2-2.8 c-0.2-0.4-0.4-0.8-0.6-1.2c0,0,0.1-0.1,0.1-0.1c1.6,1,3.1,2.2,4.3,3.8c1.3,1.6,2.1,3.4,2.4,5.4c0.3,1.6,0.4,3.2,0.4,4.8 c-0.1,1.8-0.2,3.5-0.2,5.3c-0.1,1.7-0.1,3.4,0.1,5.1c0.3,2.5,0.9,4.9,2.2,7.1C22.6,75.7,23.4,76.6,24.3,77.4"></path> </g> <g> <path class="st0" d="M21.5,87.9c-0.2-0.1-0.2,0-0.2,0.2c-0.1,0-0.1,0-0.1-0.1c-0.1-0.1-0.1-0.1-0.1-0.2c0.1,0,0.1,0,0.2,0 C21.4,87.8,21.4,87.9,21.5,87.9"></path> </g> <g> <path class="st0" d="M21.3,88.1c0-0.1,0-0.2,0.2-0.2C21.4,87.9,21.3,88,21.3,88.1"></path> </g> <g> <path class="st0" d="M19.4,76.1C19.4,76.2,19.4,76.2,19.4,76.1c-0.1,0.1-0.1,0.1-0.1,0.1c0-0.1-0.1-0.1-0.1-0.2h0 c0.1,0.1,0.1,0.1,0.1,0C19.4,76,19.4,76.1,19.4,76.1"></path> </g> <g> <path class="st0" d="M19.4,76c-0.1,0.1-0.1,0.1-0.1,0H19.4z"></path> </g> <g> <path class="st0" d="M19.4,76h-0.1h0c-0.1-0.1-0.2-0.1-0.1-0.3c0.1,0,0.2,0,0.1-0.1C19.4,75.7,19.3,75.9,19.4,76"></path> </g> <g> <path class="st0" d="M19.2,75.6c0.1,0.1,0,0.2-0.1,0.1C19.1,75.7,19.2,75.6,19.2,75.6"></path> </g> <g> <path class="st0" d="M19.2,75.3c0,0.1,0,0.2,0.1,0.3c-0.1,0.1-0.1,0.1-0.1,0.1c-0.9-1.3-2-2.5-3.3-3.5c-0.7-0.6-1.4-1.1-2.2-1.5 c-0.4-0.2-0.8-0.4-1.3-0.4c-0.6-0.1-1-0.5-1.3-1c-0.3-0.5-0.4-1-0.5-1.5c-0.2-1.3-0.2-2.5,0-3.8c0.2,0,0.4,0.1,0.6,0.2 c1.2,0.5,2.2,1.3,3.2,2.3c1.4,1.5,2.5,3.3,3.4,5.2C18.2,72.9,18.7,74.1,19.2,75.3"></path> </g> <g> <path class="st0" d="M18.5,40c0,0,0.1,0,0.1,0c-0.1,0.1-0.2,0-0.3,0.1C18.3,40,18.4,40,18.5,40"></path> </g> <g> <path class="st0" d="M18.5,40c-0.1,0-0.2,0-0.2,0.2c-0.2,0-0.3-0.1-0.4-0.2C18.2,39.9,18.2,39.9,18.5,40"></path> </g> <g> <path class="st0" d="M12.9,43.3c-0.1,0.1-0.1,0.1-0.1,0.1C12.7,43.3,12.7,43.2,12.9,43.3"></path> </g> <g> <path class="st0" d="M12.9,43.3c-0.1-0.1-0.2,0-0.1,0.1c-0.1,0-0.1-0.1-0.2-0.1c0-0.1,0-0.1,0-0.2C12.7,43.1,12.8,43.2,12.9,43.3 "></path> </g> <g> <path class="st0" d="M12.6,43.1c0,0.1,0,0.1,0,0.2C12.6,43.2,12.6,43.2,12.6,43.1"></path> </g> <g> <path class="st0" d="M12.6,43.1c-0.1,0.1-0.1,0.1,0,0.2c0-0.1-0.1-0.1-0.1-0.1c-0.1-0.1-0.1-0.1,0-0.1C12.6,43,12.6,43,12.6,43.1 "></path> </g> </g> </g> <g id="Layer_2"> <g> <path class="st0" d="M124.8,73.1c-0.2,0-0.2,0.1-0.2,0.3c0,0.1,0,0.2,0.1,0.3c0,0.1,0.1,0.3,0.2,0.5l1.6,4.4h0l1.5-4.3 c0.1-0.2,0.1-0.3,0.2-0.5c0.1-0.2,0.1-0.3,0.1-0.4c0-0.2-0.1-0.3-0.3-0.3v-0.3h2.6v0.3c-0.2,0-0.3,0.1-0.3,0.2 c0,0.1,0,0.2,0.1,0.4s0.1,0.3,0.2,0.5l1.6,4.3l1.7-4.4c0.1-0.2,0.1-0.3,0.2-0.4c0-0.1,0.1-0.2,0.1-0.3c0-0.2-0.1-0.3-0.3-0.3v-0.3 h2.3v0.3c-0.2,0-0.4,0.2-0.5,0.7l-2.1,5.5c-0.1,0.2-0.1,0.4-0.2,0.5c-0.1,0.2-0.1,0.3-0.1,0.3c0,0.2,0.1,0.2,0.3,0.2v0.3h-2.5 v-0.3c0.1,0,0.2,0,0.2-0.1s0-0.1,0-0.2c0,0-0.1-0.2-0.2-0.5c-0.1-0.3-0.2-0.7-0.4-1.2s-0.4-1-0.6-1.6c-0.2-0.6-0.4-1.2-0.6-1.8h0 c0,0.1-0.1,0.3-0.2,0.6s-0.2,0.6-0.4,1c-0.1,0.4-0.3,0.8-0.5,1.2c-0.2,0.4-0.3,0.8-0.5,1.1c-0.1,0.3-0.3,0.6-0.3,0.9 c-0.1,0.2-0.1,0.4-0.1,0.4c0,0.1,0,0.2,0.1,0.2s0.1,0.1,0.2,0.1v0.3h-2.2v-0.3c0,0,0.1,0,0.1,0s0.1-0.1,0.1-0.1 c0-0.1,0-0.2-0.1-0.3c0-0.1-0.1-0.2-0.1-0.3l-2.4-6.2c-0.1-0.2-0.2-0.3-0.4-0.3v-0.3h2.3V73.1z"></path> <path class="st0" d="M143.1,73.1c-0.2,0-0.2,0.1-0.2,0.3c0,0.1,0,0.2,0.1,0.3c0,0.1,0.1,0.3,0.2,0.5l1.6,4.4h0l1.5-4.3 c0.1-0.2,0.1-0.3,0.2-0.5c0.1-0.2,0.1-0.3,0.1-0.4c0-0.2-0.1-0.3-0.3-0.3v-0.3h2.6v0.3c-0.2,0-0.3,0.1-0.3,0.2 c0,0.1,0,0.2,0.1,0.4s0.1,0.3,0.2,0.5l1.6,4.3l1.7-4.4c0.1-0.2,0.1-0.3,0.2-0.4c0-0.1,0.1-0.2,0.1-0.3c0-0.2-0.1-0.3-0.3-0.3v-0.3 h2.3v0.3c-0.2,0-0.4,0.2-0.5,0.7l-2.1,5.5c-0.1,0.2-0.1,0.4-0.2,0.5c-0.1,0.2-0.1,0.3-0.1,0.3c0,0.2,0.1,0.2,0.3,0.2v0.3H149v-0.3 c0.1,0,0.2,0,0.2-0.1s0-0.1,0-0.2c0,0-0.1-0.2-0.2-0.5c-0.1-0.3-0.2-0.7-0.4-1.2s-0.4-1-0.6-1.6c-0.2-0.6-0.4-1.2-0.6-1.8h0 c0,0.1-0.1,0.3-0.2,0.6s-0.2,0.6-0.4,1c-0.1,0.4-0.3,0.8-0.5,1.2s-0.3,0.8-0.5,1.1c-0.1,0.3-0.3,0.6-0.3,0.9 c-0.1,0.2-0.1,0.4-0.1,0.4c0,0.1,0,0.2,0.1,0.2s0.1,0.1,0.2,0.1v0.3h-2.2v-0.3c0,0,0.1,0,0.1,0s0.1-0.1,0.1-0.1 c0-0.1,0-0.2-0.1-0.3c0-0.1-0.1-0.2-0.1-0.3l-2.4-6.2c-0.1-0.2-0.2-0.3-0.4-0.3v-0.3h2.3V73.1z"></path> <path class="st0" d="M161.4,73.1c-0.2,0-0.2,0.1-0.2,0.3c0,0.1,0,0.2,0.1,0.3c0,0.1,0.1,0.3,0.2,0.5l1.6,4.4h0l1.5-4.3 c0.1-0.2,0.1-0.3,0.2-0.5c0.1-0.2,0.1-0.3,0.1-0.4c0-0.2-0.1-0.3-0.3-0.3v-0.3h2.6v0.3c-0.2,0-0.3,0.1-0.3,0.2 c0,0.1,0,0.2,0.1,0.4s0.1,0.3,0.2,0.5l1.6,4.3l1.7-4.4c0.1-0.2,0.1-0.3,0.2-0.4c0-0.1,0.1-0.2,0.1-0.3c0-0.2-0.1-0.3-0.3-0.3v-0.3 h2.3v0.3c-0.2,0-0.4,0.2-0.5,0.7l-2.1,5.5c-0.1,0.2-0.1,0.4-0.2,0.5c-0.1,0.2-0.1,0.3-0.1,0.3c0,0.2,0.1,0.2,0.3,0.2v0.3h-2.5 v-0.3c0.1,0,0.2,0,0.2-0.1s0-0.1,0-0.2c0,0-0.1-0.2-0.2-0.5c-0.1-0.3-0.2-0.7-0.4-1.2s-0.4-1-0.6-1.6c-0.2-0.6-0.4-1.2-0.6-1.8h0 c0,0.1-0.1,0.3-0.2,0.6s-0.2,0.6-0.4,1c-0.1,0.4-0.3,0.8-0.5,1.2s-0.3,0.8-0.5,1.1c-0.1,0.3-0.3,0.6-0.3,0.9 c-0.1,0.2-0.1,0.4-0.1,0.4c0,0.1,0,0.2,0.1,0.2s0.1,0.1,0.2,0.1v0.3h-2.2v-0.3c0,0,0.1,0,0.1,0s0.1-0.1,0.1-0.1 c0-0.1,0-0.2-0.1-0.3c0-0.1-0.1-0.2-0.1-0.3l-2.4-6.2c-0.1-0.2-0.2-0.3-0.4-0.3v-0.3h2.3V73.1z"></path> <path class="st0" d="M178.6,79.6c0-0.3,0.1-0.6,0.4-0.9s0.6-0.4,0.9-0.4s0.6,0.1,0.9,0.4c0.3,0.3,0.4,0.6,0.4,0.9 s-0.1,0.6-0.4,0.9c-0.3,0.2-0.6,0.4-0.9,0.4s-0.6-0.1-0.9-0.4C178.7,80.2,178.6,79.9,178.6,79.6z"></path> <path class="st0" d="M195.5,75.4l-0.2-0.1c0-0.1,0-0.2,0-0.2c0-0.1-0.1-0.2-0.2-0.4c-0.2-0.1-0.4-0.2-0.6-0.4s-0.5-0.2-0.9-0.3 c-0.3-0.1-0.6-0.1-1-0.1c-0.4,0-0.9,0.1-1.3,0.2c-0.4,0.1-0.7,0.3-1,0.5c-0.3,0.2-0.5,0.5-0.7,0.9c-0.2,0.3-0.3,0.8-0.3,1.3 s0.1,0.9,0.3,1.3s0.4,0.6,0.7,0.8s0.6,0.4,1,0.5c0.4,0.1,0.7,0.1,1.1,0.1c0.5,0,1,0,1.5-0.1s0.9-0.2,1.3-0.4v-1.1h-1.9 c-0.1,0-0.2,0-0.3,0.1c-0.1,0.1-0.2,0.2-0.2,0.3h-0.3v-1.9h0.3c0,0.1,0.1,0.2,0.2,0.2c0.1,0,0.2,0.1,0.3,0.1h3.5V77 c-0.1,0-0.2,0.1-0.2,0.2c0,0.1-0.1,0.2-0.1,0.3v1.7c0,0.1,0,0.2,0,0.2c0,0,0.1,0.1,0.2,0.1v0.2c-0.1,0.1-0.3,0.2-0.5,0.3 c-0.2,0.1-0.5,0.2-0.9,0.4c-0.4,0.1-0.8,0.2-1.2,0.3c-0.5,0.1-1,0.1-1.6,0.1c-0.8,0-1.5-0.1-2.1-0.3c-0.6-0.2-1.2-0.4-1.6-0.8 c-0.4-0.3-0.8-0.8-1-1.3s-0.4-1.1-0.4-1.7s0.1-1.2,0.4-1.7s0.6-0.9,1-1.3c0.4-0.4,1-0.6,1.6-0.8c0.6-0.2,1.3-0.3,2.1-0.3 c0.5,0,0.9,0,1.2,0.1c0.4,0.1,0.7,0.2,0.9,0.3c0.3,0.1,0.5,0.2,0.7,0.3c0.2,0.1,0.3,0.1,0.4,0.1c0.1,0,0.2,0,0.2,0 c0,0,0.1-0.1,0.2-0.1l0.2,0.1L195.5,75.4z"></path> <path class="st0" d="M208.6,72.8c1.1,0,1.9,0.2,2.5,0.5c0.6,0.4,0.9,1,0.9,1.8c0,0.3-0.1,0.6-0.2,0.9c-0.1,0.3-0.3,0.5-0.5,0.7 c-0.2,0.2-0.4,0.3-0.7,0.4c-0.2,0.1-0.5,0.2-0.7,0.3l1.8,2.6c0.1,0.1,0.2,0.2,0.3,0.3c0.1,0.1,0.2,0.1,0.4,0.2v0.3h-2.8v-0.3 c0.2,0,0.2-0.1,0.2-0.2c0-0.1-0.1-0.3-0.3-0.6l-1.4-2.1h-2.5v2.6c0,0.1,0,0.2,0.1,0.2c0.1,0,0.2,0.1,0.2,0.1v0.3h-2.4v-0.3 c0.2,0,0.3-0.1,0.3-0.3v-6.7c0-0.2-0.1-0.3-0.3-0.3v-0.3H208.6z M208.6,76.2c1.2,0,1.8-0.4,1.8-1.1c0-0.3-0.1-0.5-0.4-0.7 c-0.3-0.2-0.7-0.3-1.3-0.3h-2.8v2.1H208.6z"></path> <path class="st0" d="M226,74.5c0-0.2-0.2-0.3-0.6-0.3H221v1.8h2.8c0.2,0,0.4,0,0.4,0s0.1-0.1,0.1-0.2h0.3v1.9h-0.4 c0-0.1,0-0.2-0.1-0.2c-0.1,0-0.3,0-0.6,0H221v2.1h4.6c0.1,0,0.3,0,0.4-0.1c0.1-0.1,0.1-0.2,0.1-0.3h0.3v1.9h-0.3 c0-0.1,0-0.2-0.1-0.2c-0.1,0-0.2,0-0.4,0h-6.6v-0.3c0.1,0,0.1,0,0.2-0.1s0.1-0.1,0.1-0.2v-6.7c0-0.1,0-0.2-0.1-0.2 s-0.1-0.1-0.2-0.1v-0.3h6.4c0.4,0,0.6-0.1,0.6-0.3h0.3v2H226z"></path> <path class="st0" d="M241.5,73.1c-0.2,0-0.3,0.1-0.5,0.4l-2.6,5.8c-0.1,0.3-0.2,0.5-0.3,0.6c-0.1,0.1-0.1,0.2-0.1,0.3 c0,0.1,0.1,0.1,0.3,0.2v0.3h-2.7v-0.3c0.1,0,0.1-0.1,0.2-0.1c0.1,0,0.1-0.1,0.1-0.1c0-0.1,0-0.2-0.1-0.3s-0.2-0.3-0.3-0.5 l-2.7-5.9c0-0.1-0.1-0.2-0.2-0.3s-0.2-0.1-0.2-0.1v-0.3h2.5v0.3c-0.1,0-0.2,0.1-0.2,0.2c0,0.1,0,0.2,0.1,0.4 c0.1,0.2,0.1,0.3,0.2,0.5l2.1,4.5l2-4.4c0.1-0.3,0.2-0.5,0.3-0.6c0.1-0.1,0.1-0.3,0.1-0.3c0-0.1-0.1-0.2-0.3-0.2v-0.3h2.4V73.1z"></path> <path class="st0" d="M247.8,80.4c0.2,0,0.3,0,0.4-0.1c0.1,0,0.1-0.1,0.1-0.2v-6.7c0-0.1,0-0.2-0.1-0.2c-0.1,0-0.2-0.1-0.4-0.1 v-0.3h2.7v0.3c-0.3,0-0.5,0.1-0.5,0.3v6.7c0,0.2,0.2,0.3,0.5,0.3v0.3h-2.7V80.4z"></path> <path class="st0" d="M258,80.4c0.2,0,0.3-0.1,0.3-0.3v-6.7c0-0.2-0.1-0.3-0.3-0.3v-0.3h2.6v0.3c-0.1,0-0.1,0-0.1,0.1 c0,0.1,0.1,0.2,0.4,0.5l4.3,4.6v-4.9c0-0.2-0.1-0.3-0.4-0.3v-0.3h2.2v0.3c-0.2,0-0.3,0.1-0.3,0.3v6.7c0,0.2,0.1,0.3,0.3,0.3v0.3 h-2.3v-0.3c0.1,0,0.1,0,0.1-0.1c0,0-0.1-0.1-0.2-0.3c-0.1-0.1-0.2-0.3-0.4-0.4l-4.5-4.8v5.2c0,0.2,0.1,0.3,0.4,0.3v0.3H258V80.4z"></path> <path class="st0" d="M274.3,80.4c0.2,0,0.3-0.1,0.3-0.3v-6.7c0-0.2-0.1-0.3-0.3-0.3v-0.3h2.6v0.3c-0.1,0-0.1,0-0.1,0.1 c0,0.1,0.1,0.2,0.4,0.5l4.3,4.6v-4.9c0-0.2-0.1-0.3-0.4-0.3v-0.3h2.2v0.3c-0.2,0-0.3,0.1-0.3,0.3v6.7c0,0.2,0.1,0.3,0.3,0.3v0.3 H281v-0.3c0.1,0,0.1,0,0.1-0.1c0,0-0.1-0.1-0.2-0.3s-0.2-0.3-0.4-0.4l-4.5-4.8v5.2c0,0.2,0.1,0.3,0.4,0.3v0.3h-2.2V80.4z"></path> <path class="st0" d="M289.4,80.4c0.1,0,0.3-0.1,0.4-0.2c0.1-0.1,0.2-0.2,0.2-0.3l2.7-5.9c0.1-0.2,0.1-0.3,0.2-0.4 c0-0.1,0.1-0.2,0.1-0.3c0-0.1,0-0.1,0-0.1c0,0-0.1,0-0.1-0.1v-0.3h2.7v0.3c0,0-0.1,0-0.1,0.1c0,0-0.1,0.1-0.1,0.1 c0,0.1,0,0.2,0.1,0.3c0.1,0.1,0.1,0.2,0.2,0.4l2.9,6.1c0.1,0.1,0.1,0.2,0.2,0.2s0.1,0.1,0.2,0.1v0.3h-2.6v-0.3 c0.1,0,0.1,0,0.2-0.1c0.1,0,0.1-0.1,0.1-0.2c0-0.1,0-0.1,0-0.2c0-0.1-0.1-0.1-0.1-0.2l-0.5-1h-3.9l-0.5,1c0,0.1-0.1,0.2-0.1,0.3 s0,0.1,0,0.2c0,0.1,0,0.2,0.1,0.2c0.1,0,0.1,0,0.3,0v0.3h-2.4V80.4z M295.5,77.4l-1.5-3l-1.3,3H295.5z"></path> <path class="st0" d="M305,80.4c0.2,0,0.3-0.1,0.3-0.3v-6.7c0-0.2-0.1-0.3-0.3-0.3v-0.3h2.6v0.3c-0.1,0-0.1,0-0.1,0.1 c0,0.1,0.1,0.2,0.4,0.5l4.3,4.6v-4.9c0-0.2-0.1-0.3-0.4-0.3v-0.3h2.2v0.3c-0.2,0-0.3,0.1-0.3,0.3v6.7c0,0.2,0.1,0.3,0.3,0.3v0.3 h-2.3v-0.3c0.1,0,0.1,0,0.1-0.1c0,0-0.1-0.1-0.2-0.3c-0.1-0.1-0.2-0.3-0.4-0.4l-4.5-4.8v5.2c0,0.2,0.1,0.3,0.4,0.3v0.3H305V80.4z"></path> <path class="st0" d="M321.8,78c0,0,0,0.1,0,0.2c0,0.1,0,0.1,0,0.2c0,0.2,0.1,0.3,0.3,0.5c0.2,0.1,0.5,0.3,0.8,0.4 c0.3,0.1,0.6,0.2,1,0.2c0.3,0.1,0.6,0.1,0.7,0.1c0.2,0,0.4,0,0.6,0s0.5-0.1,0.7-0.2s0.4-0.2,0.6-0.3c0.2-0.1,0.3-0.3,0.3-0.5 c0-0.3-0.1-0.5-0.4-0.6c-0.3-0.1-0.7-0.2-1.1-0.3c-0.4-0.1-0.9-0.1-1.4-0.2c-0.5-0.1-1-0.2-1.4-0.3c-0.4-0.1-0.8-0.4-1.1-0.6 c-0.3-0.3-0.4-0.7-0.4-1.2c0-0.8,0.3-1.4,1-1.8c0.6-0.5,1.5-0.7,2.7-0.7c0.6,0,1,0,1.4,0.1c0.4,0.1,0.7,0.2,1,0.3 c0.3,0.1,0.5,0.2,0.7,0.3s0.3,0.1,0.4,0.1c0.1,0,0.2,0,0.2,0s0.1-0.1,0.2-0.1l0.2,0.2l-0.9,1.7l-0.3-0.1c0-0.1,0-0.1,0-0.2 c0-0.1-0.1-0.1-0.2-0.2c-0.2-0.2-0.6-0.4-1.1-0.5c-0.5-0.1-1.1-0.2-1.7-0.2c-0.2,0-0.5,0-0.7,0c-0.2,0-0.4,0.1-0.6,0.2 s-0.3,0.2-0.4,0.3c-0.1,0.1-0.1,0.3-0.1,0.4c0,0.3,0.1,0.5,0.4,0.6c0.3,0.1,0.7,0.2,1.1,0.3c0.4,0.1,0.9,0.1,1.4,0.2 c0.5,0.1,1,0.2,1.4,0.3c0.4,0.2,0.8,0.4,1.1,0.7s0.4,0.7,0.4,1.2s-0.1,1-0.4,1.3s-0.6,0.6-1,0.8c-0.4,0.2-0.8,0.3-1.3,0.4 s-0.9,0.1-1.3,0.1c-0.4,0-0.8,0-1.2-0.1c-0.4-0.1-0.8-0.2-1.1-0.3c-0.3-0.1-0.6-0.2-0.8-0.3c-0.2-0.1-0.4-0.1-0.4-0.1 c-0.1,0-0.2,0-0.2,0.1l-0.3-0.2l0.8-2L321.8,78z"></path> <path class="st0" d="M340.5,72.8c1.1,0,1.9,0.2,2.5,0.5c0.6,0.4,0.9,1,0.9,1.8c0,0.3-0.1,0.6-0.2,0.9s-0.3,0.5-0.5,0.7 c-0.2,0.2-0.4,0.3-0.7,0.4c-0.2,0.1-0.5,0.2-0.7,0.3l1.8,2.6c0.1,0.1,0.2,0.2,0.3,0.3c0.1,0.1,0.2,0.1,0.4,0.2v0.3h-2.8v-0.3 c0.2,0,0.2-0.1,0.2-0.2c0-0.1-0.1-0.3-0.3-0.6l-1.4-2.1h-2.5v2.6c0,0.1,0,0.2,0.1,0.2c0.1,0,0.2,0.1,0.2,0.1v0.3h-2.4v-0.3 c0.2,0,0.3-0.1,0.3-0.3v-6.7c0-0.2-0.1-0.3-0.3-0.3v-0.3H340.5z M340.5,76.2c1.2,0,1.8-0.4,1.8-1.1c0-0.3-0.1-0.5-0.4-0.7 s-0.7-0.3-1.3-0.3h-2.8v2.1H340.5z"></path> <path class="st0" d="M353.4,73.1c-0.3,0-0.4,0.1-0.4,0.3v4.1c0,0.6,0.2,1,0.6,1.4c0.4,0.3,1.1,0.5,1.9,0.5s1.5-0.2,1.9-0.5 c0.4-0.3,0.6-0.8,0.6-1.4v-4.1c0-0.2-0.2-0.3-0.5-0.3v-0.3h2.5v0.3c-0.3,0-0.4,0.1-0.4,0.3V78c0,0.4-0.1,0.7-0.3,1.1 s-0.4,0.6-0.8,0.9c-0.3,0.3-0.8,0.5-1.3,0.6s-1.2,0.2-1.9,0.2s-1.3-0.1-1.9-0.2c-0.5-0.2-1-0.4-1.3-0.6s-0.6-0.6-0.8-0.9 s-0.3-0.7-0.3-1.1v-4.6c0-0.1,0-0.2-0.1-0.2s-0.2-0.1-0.4-0.1v-0.3h2.6V73.1z"></path> <path class="st0" d="M367.5,80.4c0.1,0,0.1,0,0.2-0.1c0,0,0.1-0.1,0.1-0.3v-6.6c0-0.2,0-0.3,0-0.3s-0.1-0.1-0.2-0.1v-0.3h2.5v0.3 c-0.1,0-0.2,0.1-0.2,0.2c0,0,0,0.1,0.1,0.2s0.1,0.2,0.2,0.3l2.2,4l2.2-4c0.1-0.1,0.1-0.3,0.2-0.4s0.1-0.2,0.1-0.2 c0-0.1,0-0.2-0.1-0.2v-0.3h2.5v0.3c-0.1,0-0.1,0-0.2,0c-0.1,0-0.1,0.1-0.1,0.2v6.8c0,0.1,0,0.2,0.1,0.2c0.1,0,0.1,0.1,0.2,0.1v0.3 H375v-0.3c0.3,0,0.4-0.1,0.3-0.3v-5.1h0l-3.1,5.7h-0.1l-2.9-5.7h0h0v5.1c0,0.2,0.1,0.3,0.3,0.3v0.3h-2V80.4z"></path> <path class="st0" d="M384.6,79.6c0-0.3,0.1-0.6,0.4-0.9s0.6-0.4,0.9-0.4c0.3,0,0.6,0.1,0.9,0.4c0.3,0.3,0.4,0.6,0.4,0.9 s-0.1,0.6-0.4,0.9c-0.3,0.2-0.6,0.4-0.9,0.4c-0.3,0-0.6-0.1-0.9-0.4C384.7,80.2,384.6,79.9,384.6,79.6z"></path> <path class="st0" d="M394.9,78c0,0,0,0.1,0,0.2c0,0.1,0,0.1,0,0.2c0,0.2,0.1,0.3,0.3,0.5c0.2,0.1,0.5,0.3,0.8,0.4 c0.3,0.1,0.6,0.2,1,0.2c0.3,0.1,0.6,0.1,0.7,0.1c0.2,0,0.4,0,0.6,0s0.5-0.1,0.7-0.2s0.4-0.2,0.6-0.3c0.2-0.1,0.3-0.3,0.3-0.5 c0-0.3-0.1-0.5-0.4-0.6c-0.3-0.1-0.7-0.2-1.1-0.3c-0.4-0.1-0.9-0.1-1.4-0.2c-0.5-0.1-1-0.2-1.4-0.3c-0.4-0.1-0.8-0.4-1.1-0.6 c-0.3-0.3-0.4-0.7-0.4-1.2c0-0.8,0.3-1.4,1-1.8s1.5-0.7,2.7-0.7c0.6,0,1,0,1.4,0.1c0.4,0.1,0.7,0.2,1,0.3c0.3,0.1,0.5,0.2,0.7,0.3 s0.3,0.1,0.4,0.1c0.1,0,0.2,0,0.2,0s0.1-0.1,0.2-0.1l0.2,0.2l-0.9,1.7l-0.3-0.1c0-0.1,0-0.1,0-0.2s-0.1-0.1-0.2-0.2 c-0.2-0.2-0.6-0.4-1.1-0.5c-0.5-0.1-1.1-0.2-1.7-0.2c-0.2,0-0.5,0-0.7,0c-0.2,0-0.4,0.1-0.6,0.2c-0.2,0.1-0.3,0.2-0.4,0.3 s-0.1,0.3-0.1,0.4c0,0.3,0.1,0.5,0.4,0.6c0.3,0.1,0.7,0.2,1.1,0.3c0.4,0.1,0.9,0.1,1.4,0.2c0.5,0.1,1,0.2,1.4,0.3 c0.4,0.2,0.8,0.4,1.1,0.7s0.4,0.7,0.4,1.2s-0.1,1-0.4,1.3c-0.3,0.3-0.6,0.6-1,0.8c-0.4,0.2-0.8,0.3-1.3,0.4s-0.9,0.1-1.3,0.1 c-0.4,0-0.8,0-1.2-0.1c-0.4-0.1-0.8-0.2-1.1-0.3c-0.3-0.1-0.6-0.2-0.8-0.3c-0.2-0.1-0.4-0.1-0.4-0.1c-0.1,0-0.2,0-0.2,0.1 l-0.3-0.2l0.8-2L394.9,78z"></path> <path class="st0" d="M415.7,74.5c0-0.2-0.2-0.3-0.6-0.3h-4.4v1.8h2.8c0.2,0,0.4,0,0.4,0c0.1,0,0.1-0.1,0.1-0.2h0.3v1.9H414 c0-0.1,0-0.2-0.1-0.2c-0.1,0-0.3,0-0.6,0h-2.6v2.1h4.6c0.1,0,0.3,0,0.4-0.1c0.1-0.1,0.1-0.2,0.1-0.3h0.3v1.9h-0.3 c0-0.1,0-0.2-0.1-0.2c-0.1,0-0.2,0-0.4,0h-6.6v-0.3c0.1,0,0.1,0,0.2-0.1c0.1,0,0.1-0.1,0.1-0.2v-6.7c0-0.1,0-0.2-0.1-0.2 c-0.1,0-0.1-0.1-0.2-0.1v-0.3h6.4c0.4,0,0.6-0.1,0.6-0.3h0.3v2H415.7z"></path> </g> </g> </svg> 